<?xml version="1.0" encoding="utf-8"?>
<svg viewBox="0 0 500 500" xmlns="http://www.w3.org/2000/svg" xmlns:bx="https://boxy-svg.com">
  <defs>
    <marker id="marker-1" viewBox="0 0 100 100" overflow="visible" orient="auto" refX="50" refY="50">
      <path d="M 50.143 14.52 L 100.045 100.953 L 0.24 100.953 L 50.143 14.52 Z" style="fill: rgb(68, 68, 68);" transform="matrix(0, 1, -1, 0, 100.953003, -0.045)" bx:shape="triangle 0.24 14.52 99.805 86.433 0.5 0 1@260e0eae"/>
    </marker>
    <marker id="marker-4" viewBox="0 0 100 100" overflow="visible" orient="auto" refX="50" refY="50" bx:pinned="true">
      <path d="M 50.143 14.52 L 100.045 100.953 L 0.24 100.953 L 50.143 14.52 Z" style="fill: rgb(208, 0, 255);" transform="matrix(0, 1, -1, 0, 100.953003, -0.045)" bx:shape="triangle 0.24 14.52 99.805 86.433 0.5 0 1@260e0eae"/>
    </marker>
    <marker id="marker-0" viewBox="0 0 100 100" overflow="visible" orient="auto" refX="50" refY="50">
      <path d="M 49.577 14.356 L 98.916 99.814 L 0.238 99.814 L 49.577 14.356 Z" style="fill: rgb(255, 170, 0);" transform="matrix(0, 1, -1, 0, 99.943085, 0.522459)" bx:shape="triangle 0.238 14.356 98.678 85.458 0.5 0 1@23f167c9"/>
    </marker>
    <marker id="marker-2" viewBox="0 0 86.433 99.805" overflow="visible" orient="auto" refX="43.22" refY="49.9" bx:pinned="true">
      <path d="M 50.143 14.52 L 100.045 100.953 L 0.24 100.953 L 50.143 14.52 Z" style="fill: rgb(0, 255, 68);" transform="matrix(0, 1, -1, 0, 100.95299911499023, -0.24000000953674316)" bx:shape="triangle 0.24 14.52 99.805 86.433 0.5 0 1@260e0eae"/>
    </marker>
    <marker id="marker-3" viewBox="0 0 100 100" overflow="visible" orient="auto" refX="50" refY="50" bx:pinned="true">
      <path d="M 50.143 14.52 L 100.045 100.953 L 0.24 100.953 L 50.143 14.52 Z" style="fill: rgb(0, 149, 255);" transform="matrix(0, 1, -1, 0, 100.953003, -0.045)" bx:shape="triangle 0.24 14.52 99.805 86.433 0.5 0 1@260e0eae"/>
    </marker>
  </defs>
  <g transform="matrix(1.241695, 0, 0, 1.241695, -236.500259, 172.497421)" style="">
    <line style="stroke: rgb(0, 0, 0); stroke-width: 3px; stroke-linecap: round;" x1="209.245" y1="13.579" x2="249.635" y2="30.309"/>
    <line style="stroke: rgb(0, 0, 0); stroke-width: 3px; stroke-linecap: round;" x1="209.245" y1="13.432" x2="249.635" y2="-3.298" transform="matrix(-1, 0, 0, -1, 458.87999, 10.133999)"/>
    <path style="stroke: rgb(0, 0, 0); fill: none; stroke-width: 3px;" d="M 235.037 2.879 C 241.179 3.037 240.954 24.318 235.037 24.089"/>
    <path style="" d="M 237.368 8.67 C 233.464 8.633 233.464 17.345 237.368 17.382 C 239.832 17.047 239.586 8.369 237.368 8.67 Z"/>
    <circle style="fill: rgb(255, 255, 255);" cx="92.967" cy="197.757" r="1.257" transform="matrix(0.777128, 0, 0, -1.412511, 164.997025, 290.321014)"/>
  </g>
  <path style="stroke-width: 1.767px; fill: rgb(255, 213, 0);" d="M 260.506 52.807 C 247.976 52.807 240.145 39.243 246.409 28.391 C 249.317 23.355 254.691 20.252 260.506 20.252 L 260.506 36.836 Z" transform="matrix(0, -1, 1, 0, 215.825777, 288.884779)"/>
  <g transform="matrix(1, 0, 0, 1, 1, 0)">
    <line style="marker-end: url(#marker-0); stroke: rgb(255, 170, 0); stroke-width: 2px;" x1="238.143" y1="36.51" x2="64.787" y2="184.432"/>
    <line style="marker-end: url(#marker-3); stroke: rgb(0, 149, 255); stroke-width: 2px;" x1="336.92" y1="310.384" x2="65.762" y2="192.438"/>
    <line style="marker-end: url(#marker-0); stroke: rgb(255, 170, 0); stroke-width: 2px;" x1="242.551" y1="41.441" x2="222.558" y2="70.359"/>
    <line style="stroke: rgb(208, 0, 255); marker-end: url(#marker-4); stroke-width: 2px;" x1="221.537" y1="73.663" x2="223.54" y2="136.321"/>
    <line style="fill: rgb(0, 255, 68); stroke: rgb(0, 255, 68); marker-end: url(#marker-2); stroke-width: 2px;" x1="223.398" y1="139.634" x2="188.693" y2="330.946"/>
    <line style="fill: rgb(0, 255, 68); stroke: rgb(0, 255, 68); marker-end: url(#marker-2); stroke-width: 2px;" x1="188.374" y1="333.364" x2="362.082" y2="204.691"/>
    <line style="marker-end: url(#marker-3); stroke: rgb(0, 149, 255); stroke-width: 2px;" x1="365.016" y1="201.855" x2="66.078" y2="188.973"/>
    <line style="marker-end: url(#marker-3); stroke: rgb(0, 149, 255); stroke-width: 2px;" x1="298.24" y1="319.424" x2="64.699" y2="195.516"/>
    <line style="marker-end: url(#marker-1); fill: rgb(68, 68, 68); stroke: rgb(68, 68, 68); stroke-width: 2px;" x1="221" y1="72.919" x2="152.568" y2="70.148"/>
    <line style="marker-end: url(#marker-0); stroke: rgb(255, 170, 0); stroke-width: 2px;" x1="255.093" y1="44.382" x2="297.95" y2="317.522"/>
    <line style="fill: rgb(0, 255, 68); stroke: rgb(0, 255, 68); marker-end: url(#marker-2); stroke-width: 2px;" x1="474.145" y1="179.22" x2="337.19" y2="309.271"/>
    <line style="marker-end: url(#marker-0); stroke: rgb(255, 170, 0); stroke-width: 2px;" x1="265.567" y1="37.543" x2="472.586" y2="177.314"/>
    <line style="marker-end: url(#marker-1); fill: rgb(68, 68, 68); stroke: rgb(68, 68, 68); stroke-width: 2px;" x1="189.441" y1="334.511" x2="115.426" y2="303.05"/>
    <line style="marker-end: url(#marker-1); fill: rgb(68, 68, 68); stroke: rgb(68, 68, 68); stroke-width: 2px;" x1="296.791" y1="320.128" x2="242.932" y2="314.258"/>
    <g transform="matrix(-0.011075, -1.241646, 1.241646, -0.011075, 125.352951, 473.13327)" style="">
      <path d="M 234.78 282.336 H 245.585 L 245.585 280.336 L 250.585 282.836 L 245.585 285.336 L 245.585 283.336 H 234.78 V 282.336 Z" style="fill: rgb(216, 216, 216);" transform="matrix(-0.69102, -0.722835, 0.722835, -0.69102, 192.574112, 647.989197)" bx:shape="arrow 234.78 280.336 15.805 5 1 5 0 1@4e5ca225"/>
      <path d="M 234.427 282.158 H 247.321 L 247.321 280.158 L 252.321 282.658 L 247.321 285.158 L 247.321 283.158 H 234.427 V 282.158 Z" style="fill: rgb(216, 216, 216);" transform="matrix(-0.994412, -0.105573, 0.105573, -0.994412, 437.70343, 588.484802)" bx:shape="arrow 234.427 280.158 17.894 5 1 5 0 1@1c8fe333"/>
      <path d="M 234.893 282.351 H 250.702 L 250.702 280.351 L 255.702 282.851 L 250.702 285.351 L 250.702 283.351 H 234.893 V 282.351 Z" style="fill: rgb(216, 216, 216);" transform="matrix(0.962249, -0.272172, 0.272172, 0.962249, -68.833801, 74.480263)" bx:shape="arrow 234.893 280.351 20.809 5 1 5 0 1@ba299a33"/>
      <path d="M 222.9 281.955 H 238.812 L 238.812 279.955 L 243.555 282.455 L 238.812 284.955 L 238.812 282.955 H 222.9 V 281.955 Z" style="fill: rgb(216, 216, 216);" transform="matrix(0.308288, -0.951293, 0.951293, 0.308288, -102.431839, 407.42041)" bx:shape="arrow 222.9 279.955 20.655 5 1 4.743 0 1@d183bcf6"/>
      <path style="stroke: rgb(0, 0, 0); fill: none;" d="M 231.095 285.711 C 235.298 285.692 237.962 281.25 235.843 277.702 C 234.861 276.056 233.053 275.047 231.102 275.056" transform="matrix(0, -1, 1, 0, -46.541733, 514.239212)"/>
    </g>
    <g transform="matrix(1.206847, -0.292111, 0.292111, 1.206847, -29.363407, 36.813076)" style="">
      <path d="M 234.78 282.336 H 245.585 L 245.585 280.336 L 250.585 282.836 L 245.585 285.336 L 245.585 283.336 H 234.78 V 282.336 Z" style="fill: rgb(216, 216, 216);" transform="matrix(-0.69102, -0.722835, 0.722835, -0.69102, 192.574112, 647.989197)" bx:shape="arrow 234.78 280.336 15.805 5 1 5 0 1@4e5ca225"/>
      <path d="M 234.893 282.351 H 250.702 L 250.702 280.351 L 255.702 282.851 L 250.702 285.351 L 250.702 283.351 H 234.893 V 282.351 Z" style="fill: rgb(216, 216, 216);" transform="matrix(0.962249, -0.272172, 0.272172, 0.962249, -68.833801, 74.480263)" bx:shape="arrow 234.893 280.351 20.809 5 1 5 0 1@ba299a33"/>
      <path d="M 222.9 281.955 H 238.812 L 238.812 279.955 L 243.555 282.455 L 238.812 284.955 L 238.812 282.955 H 222.9 V 281.955 Z" style="fill: rgb(216, 216, 216);" transform="matrix(0.308288, -0.951293, 0.951293, 0.308288, -102.431839, 407.42041)" bx:shape="arrow 222.9 279.955 20.655 5 1 4.743 0 1@d183bcf6"/>
      <path style="stroke: rgb(0, 0, 0); fill: none;" d="M 231.095 285.711 C 235.298 285.692 237.962 281.25 235.843 277.702 C 234.861 276.056 233.053 275.047 231.102 275.056" transform="matrix(0, -1, 1, 0, -46.541733, 514.239212)"/>
    </g>
    <g transform="matrix(1.206847, -0.292111, 0.292111, 1.206847, -68.524017, 46.397934)" style="">
      <path d="M 234.78 282.336 H 245.585 L 245.585 280.336 L 250.585 282.836 L 245.585 285.336 L 245.585 283.336 H 234.78 V 282.336 Z" style="fill: rgb(216, 216, 216);" transform="matrix(-0.69102, -0.722835, 0.722835, -0.69102, 192.574112, 647.989197)" bx:shape="arrow 234.78 280.336 15.805 5 1 5 0 1@4e5ca225"/>
      <path d="M 234.427 282.158 H 247.321 L 247.321 280.158 L 252.321 282.658 L 247.321 285.158 L 247.321 283.158 H 234.427 V 282.158 Z" style="fill: rgb(216, 216, 216);" transform="matrix(-0.994412, -0.105573, 0.105573, -0.994412, 437.70343, 588.484802)" bx:shape="arrow 234.427 280.158 17.894 5 1 5 0 1@1c8fe333"/>
      <path d="M 234.893 282.351 H 250.702 L 250.702 280.351 L 255.702 282.851 L 250.702 285.351 L 250.702 283.351 H 234.893 V 282.351 Z" style="fill: rgb(216, 216, 216);" transform="matrix(0.962249, -0.272172, 0.272172, 0.962249, -68.833801, 74.480263)" bx:shape="arrow 234.893 280.351 20.809 5 1 5 0 1@ba299a33"/>
      <path style="stroke: rgb(0, 0, 0); fill: none;" d="M 231.095 285.711 C 235.298 285.692 237.962 281.25 235.843 277.702 C 234.861 276.056 233.053 275.047 231.102 275.056" transform="matrix(0, -1, 1, 0, -46.541733, 514.239212)"/>
    </g>
    <g transform="matrix(1.159318, 0.444737, -0.444737, 1.159318, 43.418201, -97.57164)" style="">
      <path d="M 234.78 282.336 H 245.585 L 245.585 280.336 L 250.585 282.836 L 245.585 285.336 L 245.585 283.336 H 234.78 V 282.336 Z" style="fill: rgb(216, 216, 216);" transform="matrix(-0.69102, -0.722835, 0.722835, -0.69102, 192.574112, 647.989197)" bx:shape="arrow 234.78 280.336 15.805 5 1 5 0 1@4e5ca225"/>
      <path d="M 234.893 282.351 H 250.702 L 250.702 280.351 L 255.702 282.851 L 250.702 285.351 L 250.702 283.351 H 234.893 V 282.351 Z" style="fill: rgb(216, 216, 216);" transform="matrix(0.962249, -0.272172, 0.272172, 0.962249, -68.833801, 74.480263)" bx:shape="arrow 234.893 280.351 20.809 5 1 5 0 1@ba299a33"/>
      <path d="M 222.9 281.955 H 238.812 L 238.812 279.955 L 243.555 282.455 L 238.812 284.955 L 238.812 282.955 H 222.9 V 281.955 Z" style="fill: rgb(216, 216, 216);" transform="matrix(0.308288, -0.951293, 0.951293, 0.308288, -102.431839, 407.42041)" bx:shape="arrow 222.9 279.955 20.655 5 1 4.743 0 1@d183bcf6"/>
      <path style="stroke: rgb(0, 0, 0); fill: none;" d="M 231.095 285.711 C 235.298 285.692 237.962 281.25 235.843 277.702 C 234.861 276.056 233.053 275.047 231.102 275.056" transform="matrix(0, -1, 1, 0, -46.541733, 514.239212)"/>
    </g>
    <g transform="matrix(-0.753175, -0.987188, 0.987188, -0.753175, 262.072998, 646.659973)" style="">
      <path d="M 234.78 282.336 H 245.585 L 245.585 280.336 L 250.585 282.836 L 245.585 285.336 L 245.585 283.336 H 234.78 V 282.336 Z" style="fill: rgb(216, 216, 216);" transform="matrix(-0.69102, -0.722835, 0.722835, -0.69102, 192.574112, 647.989197)" bx:shape="arrow 234.78 280.336 15.805 5 1 5 0 1@4e5ca225"/>
      <path d="M 234.427 282.158 H 247.321 L 247.321 280.158 L 252.321 282.658 L 247.321 285.158 L 247.321 283.158 H 234.427 V 282.158 Z" style="fill: rgb(216, 216, 216);" transform="matrix(-0.994412, -0.105573, 0.105573, -0.994412, 437.70343, 588.484802)" bx:shape="arrow 234.427 280.158 17.894 5 1 5 0 1@1c8fe333"/>
      <path d="M 234.893 282.351 H 250.702 L 250.702 280.351 L 255.702 282.851 L 250.702 285.351 L 250.702 283.351 H 234.893 V 282.351 Z" style="fill: rgb(216, 216, 216);" transform="matrix(0.962249, -0.272172, 0.272172, 0.962249, -68.833801, 74.480263)" bx:shape="arrow 234.893 280.351 20.809 5 1 5 0 1@ba299a33"/>
      <path d="M 222.9 281.955 H 238.812 L 238.812 279.955 L 243.555 282.455 L 238.812 284.955 L 238.812 282.955 H 222.9 V 281.955 Z" style="fill: rgb(216, 216, 216);" transform="matrix(0.308288, -0.951293, 0.951293, 0.308288, -102.431839, 407.42041)" bx:shape="arrow 222.9 279.955 20.655 5 1 4.743 0 1@d183bcf6"/>
      <path style="stroke: rgb(0, 0, 0); fill: none;" d="M 231.095 285.711 C 235.298 285.692 237.962 281.25 235.843 277.702 C 234.861 276.056 233.053 275.047 231.102 275.056" transform="matrix(0, -1, 1, 0, -46.541733, 514.239212)"/>
    </g>
    <g transform="matrix(1.21964, -0.233007, 0.233007, 1.21964, -130.517868, -218.124496)" style="">
      <path d="M 234.78 282.336 H 245.585 L 245.585 280.336 L 250.585 282.836 L 245.585 285.336 L 245.585 283.336 H 234.78 V 282.336 Z" style="fill: rgb(216, 216, 216);" transform="matrix(-0.69102, -0.722835, 0.722835, -0.69102, 192.574112, 647.989197)" bx:shape="arrow 234.78 280.336 15.805 5 1 5 0 1@4e5ca225"/>
      <path d="M 234.427 282.158 H 247.321 L 247.321 280.158 L 252.321 282.658 L 247.321 285.158 L 247.321 283.158 H 234.427 V 282.158 Z" style="fill: rgb(216, 216, 216);" transform="matrix(-0.994412, -0.105573, 0.105573, -0.994412, 437.70343, 588.484802)" bx:shape="arrow 234.427 280.158 17.894 5 1 5 0 1@1c8fe333"/>
      <path d="M 234.893 282.351 H 250.702 L 250.702 280.351 L 255.702 282.851 L 250.702 285.351 L 250.702 283.351 H 234.893 V 282.351 Z" style="fill: rgb(216, 216, 216);" transform="matrix(0.962249, -0.272172, 0.272172, 0.962249, -68.833801, 74.480263)" bx:shape="arrow 234.893 280.351 20.809 5 1 5 0 1@ba299a33"/>
      <path style="stroke: rgb(0, 0, 0); fill: none;" d="M 231.095 285.711 C 235.298 285.692 237.962 281.25 235.843 277.702 C 234.861 276.056 233.053 275.047 231.102 275.056" transform="matrix(0, -1, 1, 0, -46.541733, 514.239212)"/>
    </g>
    <line style="marker-end: url(#marker-1); fill: rgb(68, 68, 68); stroke: rgb(68, 68, 68); stroke-width: 2px;" x1="362.967" y1="201.366" x2="294.937" y2="187.354"/>
    <line style="marker-end: url(#marker-1); fill: rgb(68, 68, 68); stroke: rgb(68, 68, 68); stroke-width: 2px;" x1="364.387" y1="201.851" x2="305.32" y2="228.507"/>
  </g>
  <g style="" transform="matrix(1.241695, 0, 0, 1.241695, -60.711815, -60.277237)">
    <line style="stroke: rgb(0, 0, 0); stroke-width: 3px; stroke-linecap: square;" x1="432.139" y1="70" x2="432.139" y2="430"/>
    <line style="stroke: rgb(0, 0, 0); stroke-width: 3px; stroke-linecap: square;" x1="72.139" y1="430" x2="432.139" y2="430"/>
    <rect x="283.033" y="293.512" width="103.906" height="95.367" style="" transform="matrix(0.971013, -0.239027, 0.239027, 0.971013, -72.142387, 92.254913)"/>
    <rect x="175.4" y="328.304" width="75.829" height="72.792" style="" transform="matrix(0.925881, 0.377815, -0.377815, 0.925881, 156.98526, -54.588699)"/>
    <rect x="205.678" y="71.186" width="53.467" height="34.116" style="" transform="matrix(0.791317, -0.611406, 0.611406, 0.791317, 129.763763, 272.341919)"/>
    <rect x="107.528" y="110.713" width="27.952" height="53.059" style="stroke-width: 2.41605px; paint-order: fill; stroke: rgb(0, 0, 0); fill: rgba(95, 95, 95, 0.18);" transform="matrix(0.980905, -0.194487, 0.194487, 0.980905, 81.567543, 23.808933)"/>
    <line style="stroke: rgb(0, 0, 0); stroke-width: 3px; stroke-linecap: square;" x1="72.139" y1="69.764" x2="432.139" y2="69.764"/>
  </g>
</svg>