<?xml version="1.0" encoding="UTF-8" standalone="no"?>
<!DOCTYPE svg PUBLIC "-//W3C//DTD SVG 1.1//EN" "http://www.w3.org/Graphics/SVG/1.1/DTD/svg11.dtd">
<svg xmlns="http://www.w3.org/2000/svg" xmlns:xlink="http://www.w3.org/1999/xlink" version="1.1" width="315.12pt" height="149.04pt" viewBox="0 0 315.12 149.04">
<g enable-background="new">
<clipPath id="cp0">
<path transform="matrix(.24,0,0,.24,0,0)" d="M 0 0 L 1312.5 0 L 1312.5 618.75 L 0 618.75 Z " fill-rule="evenodd"/>
</clipPath>
<g clip-path="url(#cp0)">
<path transform="matrix(.75,0,0,.75,0,0)" d="M 0 0 L 419 0 L 419 199 L 0 199 Z " fill="#ffffff"/>
</g>
<clipPath id="cp1">
<path transform="matrix(.24,0,0,.24,0,0)" d="M 0 0 L 1309.375 0 L 1309.375 618.75 L 0 618.75 Z " fill-rule="evenodd"/>
</clipPath>
<g clip-path="url(#cp1)">
<path transform="matrix(.7492043,0,0,.75135919,-31.461335,-73.08846)" d="M 336.54 200.036 L 421.271 198.362 "/>
<path transform="matrix(.7492043,0,0,.75135919,-31.461335,-73.08846)" d="M 336.51039 198.53629 L 338.50999 198.49678 L 338.56925 201.4962 L 336.56965 201.5357 M 340.50959 198.45728 L 342.50923 198.41777 L 342.56849 201.41719 L 340.56886 201.4567 M 344.50883 198.37827 L 346.50843 198.33876 L 346.5677 201.33818 L 344.56809 201.37769 M 348.50804 198.29926 L 350.50767 198.25975 L 350.56694 201.25917 L 348.5673 201.29868 M 352.50727 198.22025 L 354.50688 198.18074 L 354.56614 201.18016 L 352.56654 201.21967 M 356.50648 198.14124 L 358.50608 198.10173 L 358.56535 201.10115 L 356.56575 201.14066 M 360.5057 198.06223 L 362.5053 198.02272 L 362.56459 201.02214 L 360.56498 201.06165 M 364.5049 197.98322 L 366.50453 197.94371 L 366.56379 200.94313 L 364.56419 200.98264 M 368.50413 197.90419 L 370.50376 197.86469 L 370.56303 200.8641 L 368.5634 200.90361 M 372.50337 197.82518 L 374.50297 197.78568 L 374.56224 200.7851 L 372.56263 200.8246 M 376.50257 197.74617 L 378.50218 197.70667 L 378.56144 200.70609 L 376.56184 200.74559 M 380.5018 197.66716 L 382.5014 197.62766 L 382.56068 200.62708 L 380.56108 200.66658 M 384.501 197.58815 L 386.5006 197.54865 L 386.55989 200.54807 L 384.56028 200.58757 M 388.50025 197.50914 L 390.49986 197.46964 L 390.5591 200.46906 L 388.5595 200.50856 M 392.49946 197.43013 L 394.49906 197.39063 L 394.55833 200.39005 L 392.55873 200.42955 M 396.4987 197.35112 L 398.4983 197.31162 L 398.55757 200.31104 L 396.55796 200.35054 M 400.4979 197.27211 L 402.4975 197.2326 L 402.55677 200.23203 L 400.55717 200.27153 M 404.4971 197.1931 L 406.49674 197.1536 L 406.556 200.15302 L 404.55638 200.19252 M 408.49635 197.11409 L 410.49595 197.07459 L 410.5552 200.074 L 408.5556 200.11351 M 412.49555 197.03508 L 414.49516 196.99558 L 414.5544 199.995 L 412.5548 200.0345 M 416.49479 196.95607 L 418.4944 196.91657 L 418.55366 199.91599 L 416.55406 199.95549 M 420.494 196.87706 L 421.24137 196.86229 L 421.30064 199.86171 L 420.55326 199.87648 "/>
<path transform="matrix(.7380007,-.12945318,.12908192,.7401234,22.817868,22.437712)" d="M 235.661 40.061 L 309.661 176.342 L 161.66 176.342 L 235.661 40.061 Z " fill="#c2c2c2" fill-opacity=".5686"/>
<path transform="matrix(.7380007,-.12945318,.12908192,.7401234,22.817868,22.437712)" stroke-width="3" stroke-linecap="butt" stroke-miterlimit="4" stroke-linejoin="miter" fill="none" stroke="#ababab" d="M 235.661 40.061 L 309.661 176.342 L 161.66 176.342 L 235.661 40.061 Z "/>
<path transform="matrix(.7492043,0,0,.75135919,-31.461335,-73.08846)" d="M 80.545 205.081 L 336.507 200.023 "/>
<path transform="matrix(.7492043,0,0,.75135919,-31.461335,-73.08846)" stroke-width="3" stroke-linecap="butt" stroke-miterlimit="4" stroke-linejoin="miter" fill="none" stroke="#000000" d="M 80.545 205.081 L 336.507 200.023 "/>
<path transform="matrix(-.7492043,0,0,-.75135919,397.14045,228.57624)" d="M 310.786 127.062 L 261.29 274.43 "/>
<path transform="matrix(-.7492043,0,0,-.75135919,397.14045,228.57624)" stroke-width="4" stroke-linecap="butt" stroke-miterlimit="4" stroke-linejoin="miter" fill="none" stroke="#747474" d="M 310.786 127.062 L 261.29 274.43 "/>
<path transform="matrix(.08522592,.028706873,-.028624542,.08547104,198.59369,16.691727)" d="M 49.577 14.356 L 98.916 99.814 L .238 99.814 L 49.577 14.356 Z " fill="#747474"/>
<path transform="matrix(-.7492043,0,0,-.75135919,467.6383,318.8858)" d="M 405.425 248.443 L 260.748 273.244 "/>
<path transform="matrix(-.7492043,0,0,-.75135919,467.6383,318.8858)" stroke-width="4" stroke-linecap="butt" stroke-miterlimit="4" stroke-linejoin="miter" fill="none" stroke="#747474" d="M 405.425 248.443 L 260.748 273.244 "/>
<path transform="matrix(.015190149,.08886683,-.08861197,.015233838,275.9588,108.4237)" d="M 49.577 14.356 L 98.916 99.814 L .238 99.814 L 49.577 14.356 Z " fill="#747474"/>
<path transform="matrix(.7492043,0,0,.75135919,-31.461335,-73.08846)" d="M 339.46098 199.98401 C 339.46095 200.32653 339.3954 200.656 339.26429 200.97246 C 339.1332 201.28891 338.9466 201.56824 338.70439 201.81044 C 338.46217 202.05265 338.18284 202.23928 337.8664 202.37035 C 337.54997 202.50144 337.2205 202.56699 336.878 202.567 C 336.53544 202.56699 336.20594 202.50144 335.88948 202.37035 C 335.57304 202.23928 335.2937 202.05265 335.0515 201.81044 C 334.8093 201.56824 334.62266 201.28891 334.49159 200.97246 C 334.3605 200.656 334.29499 200.32653 334.29499 199.98401 C 334.29499 199.64147 334.3605 199.31197 334.49159 198.9955 C 334.62266 198.67905 334.8093 198.39972 335.0515 198.15753 C 335.2937 197.91533 335.57304 197.72869 335.88948 197.59761 C 336.20594 197.46654 336.53544 197.401 336.878 197.401 C 337.2205 197.401 337.55 197.46654 337.86643 197.59761 C 338.18287 197.72869 338.46217 197.91533 338.70439 198.15753 C 338.9466 198.39972 339.1332 198.67905 339.26429 198.9955 C 339.3954 199.31197 339.46095 199.64147 339.46098 199.98401 Z "/>
<path transform="matrix(.93028327,0,0,.932959,-194.6573,69.19962)" d="M 209.245 13.579 L 249.635 30.309 "/>
<path transform="matrix(.93028327,0,0,.932959,-194.6573,69.19962)" stroke-width="3" stroke-linecap="round" stroke-miterlimit="4" stroke-linejoin="miter" fill="none" stroke="#000000" d="M 209.245 13.579 L 249.635 30.309 "/>
<path transform="matrix(-.93028327,0,0,-.932959,232.23104,78.65422)" d="M 209.245 13.432 L 249.635 -3.298 "/>
<path transform="matrix(-.93028327,0,0,-.932959,232.23104,78.65422)" stroke-width="3" stroke-linecap="round" stroke-miterlimit="4" stroke-linejoin="miter" fill="none" stroke="#000000" d="M 209.245 13.432 L 249.635 -3.298 "/>
<path transform="matrix(.93028327,0,0,.932959,-194.6573,69.19962)" stroke-width="3" stroke-linecap="butt" stroke-miterlimit="4" stroke-linejoin="miter" fill="none" stroke="#000000" d="M 235.037 2.879 C 241.179 3.037 240.954 24.318 235.037 24.089 "/>
<path transform="matrix(.93028327,0,0,.932959,-194.6573,69.19962)" d="M 237.368 8.67 C 233.464 8.633 233.464 17.345 237.368 17.382 C 239.832 17.047 239.586 8.369 237.368 8.67 Z "/>
<path transform="matrix(.7229492,0,0,-1.3178148,-41.163358,340.05723)" d="M 94.22401 197.757 C 94.224 197.92368 94.1921 198.08402 94.12831 198.23802 C 94.06452 198.39202 93.9737 198.52796 93.855838 198.64585 C 93.73796 198.76369 93.60203 198.8545 93.44803 198.9183 C 93.29403 198.9821 93.13369 199.01399 92.96701 199.014 C 92.800319 199.01399 92.63997 198.98209 92.48597 198.91829 C 92.33197 198.8545 92.19604 198.76369 92.07818 198.64583 C 91.960308 198.52796 91.86947 198.39202 91.80568 198.238 C 91.74189 198.084 91.71 197.92368 91.71001 197.757 C 91.71 197.5903 91.74189 197.42995 91.80569 197.27594 C 91.86948 197.12194 91.960308 196.98601 92.07818 196.86815 C 92.19604 196.75028 92.33196 196.65944 92.48596 196.59568 C 92.63996 196.53189 92.800319 196.5 92.96701 196.5 C 93.13369 196.5 93.29403 196.53189 93.44804 196.59568 C 93.60203 196.65944 93.73796 196.75028 93.855838 196.86815 C 93.9737 196.98601 94.06452 197.12194 94.12831 197.27594 C 94.1921 197.42995 94.224 197.5903 94.22401 197.757 Z " fill="#ffffff"/>
<path transform="matrix(-.7492043,0,0,-.75135919,152.0158,234.246)" d="M 163.457 203.734 L 81.439 205.304 "/>
<path transform="matrix(-.7492043,0,0,-.75135919,152.0158,234.246)" stroke-width="4" stroke-linecap="butt" stroke-miterlimit="4" stroke-linejoin="miter" fill="none" stroke="#747474" d="M 163.457 203.734 L 81.439 205.304 "/>
<path transform="matrix(.0017206558,.09014658,-.08988804,.0017256048,95.4055,75.44256)" d="M 49.577 14.356 L 98.916 99.814 L .238 99.814 L 49.577 14.356 Z " fill="#747474"/>
<path transform="matrix(-.7492043,0,0,-.75135919,375.7394,292.45005)" d="M 282.409 211.449 L 261.102 275.054 "/>
<path transform="matrix(-.7492043,0,0,-.75135919,375.7394,292.45005)" stroke-width="4" stroke-linecap="butt" stroke-miterlimit="4" stroke-linejoin="miter" fill="none" stroke="#484848" d="M 282.409 211.449 L 261.102 275.054 "/>
<path transform="matrix(.085248459,.028639475,-.02855734,.085493657,177.37323,80.126)" d="M 49.577 14.356 L 98.916 99.814 L .238 99.814 L 49.577 14.356 Z " fill="#484848"/>
<path transform="matrix(-.7492043,0,0,-.75135919,430.3047,234.90496)" d="M 332.285 200.436 L 284.057 209.479 " fill="#00ffae"/>
<path transform="matrix(-.7492043,0,0,-.75135919,430.3047,234.90496)" stroke-width="4" stroke-linecap="butt" stroke-miterlimit="4" stroke-linejoin="miter" fill="none" stroke="#484848" d="M 332.285 200.436 L 284.057 209.479 "/>
<path transform="matrix(.0165688,.08861872,-.088364567,.016616455,221.0793,72.348369)" d="M 49.577 14.356 L 98.916 99.814 L .238 99.814 L 49.577 14.356 Z " fill="#484848"/>
<text xml:space="preserve" transform="matrix(.7492098 0 0 .7513647 -31.461335 -73.08846)" font-size="12.19" font-family="Unnamed"><tspan y="226.22032" x="109.87819 115.973178 120.03244 129.51625 133.57552 138.31742">o + ts</tspan></text>
<text xml:space="preserve" transform="matrix(.7492098 0 0 .7513647 -24.61266 -73.739177)" font-size="11.99" font-family="Unnamed"><tspan y="281.90693" x="241.94422">a</tspan></text>
<text xml:space="preserve" transform="matrix(.7492098 0 0 .7513647 -24.61266 -73.739177)" font-size="11.99" font-family="Unnamed"><tspan y="293.90684" x="241.94422"> </tspan></text>
<text xml:space="preserve" transform="matrix(.7492098 0 0 .7513647 97.81176 -95.35818)" font-size="11.99" font-family="Unnamed"><tspan y="281.90693" x="241.94422">b</tspan></text>
<text xml:space="preserve" transform="matrix(.7492098 0 0 .7513647 97.81176 -95.35818)" font-size="11.99" font-family="Unnamed"><tspan y="293.90684" x="241.94422"> </tspan></text>
<text xml:space="preserve" transform="matrix(.7492098 0 0 .7513647 18.744006 -195.36498)" font-size="11.99" font-family="Unnamed"><tspan y="281.90693" x="241.94422">c</tspan></text>
<text xml:space="preserve" transform="matrix(.7492098 0 0 .7513647 18.744006 -195.36498)" font-size="11.99" font-family="Unnamed"><tspan y="293.90684" x="241.94422"> </tspan></text>
<text xml:space="preserve" transform="matrix(.7492098 0 0 .7513647 -31.461335 -73.08846)" font-size="11.99" font-family="Unnamed"><tspan y="187.79462" x="258.11708 263.4406 267.4333 271.42597 275.41865">c - a</tspan></text>
<text xml:space="preserve" transform="matrix(.7492098 0 0 .7513647 -31.461335 -73.08846)" font-size="11.99" font-family="Unnamed"><tspan y="278.00196" x="329.57756 336.24397 340.23664 344.2293 348.222">b - a</tspan></text>
<text xml:space="preserve" transform="matrix(.7492098 0 0 .7513647 -31.461335 -73.08846)" font-size="11.99" font-family="Unnamed"><tspan y="180.96666" x="317.13566 323.80207 327.79475 337.12297 341.1156 347.1106 351.10328 360.4315 364.42414 371.09059 375.7547 382.42115 386.41383 390.4065 394.39918 400.39418 405.0583 409.05097 418.37919 422.37184 428.70256 433.36665 438.6902 442.68287 446.67555 450.6682 456.6632">p = a + u(b - a) + v(c - a)</tspan></text>
<text xml:space="preserve" transform="matrix(.7492098 0 0 .7513647 -31.461335 -73.08846)" font-size="6.29" font-family="Unnamed"><tspan y="219.16039" x="110.11318">&#x2192;</tspan></text>
<text xml:space="preserve" transform="matrix(.7492098 0 0 .7513647 -31.461335 -73.08846)" font-size="6.29" font-family="Unnamed"><tspan y="219.16039" x="138.01398">&#x2192;</tspan></text>
<text xml:space="preserve" transform="matrix(.7492098 0 0 .7513647 -31.461335 -73.08846)" font-size="6.29" font-family="Unnamed"><tspan y="180.59067" x="257.9701">&#x2192;</tspan></text>
<text xml:space="preserve" transform="matrix(.7492098 0 0 .7513647 -31.461335 -73.08846)" font-size="6.29" font-family="Unnamed"><tspan y="180.59067" x="275.79298">&#x2192;</tspan></text>
<text xml:space="preserve" transform="matrix(.7492098 0 0 .7513647 -31.461335 -73.08846)" font-size="6.29" font-family="Unnamed"><tspan y="111.85418" x="309.17173">&#x2192;</tspan></text>
<text xml:space="preserve" transform="matrix(.7492098 0 0 .7513647 -31.461335 -73.08846)" font-size="6.29" font-family="Unnamed"><tspan y="172.31774" x="317.81965">&#x2192;</tspan></text>
<text xml:space="preserve" transform="matrix(.7492098 0 0 .7513647 -31.461335 -73.08846)" font-size="6.29" font-family="Unnamed"><tspan y="172.31774" x="341.17048">&#x2192;</tspan></text>
<text xml:space="preserve" transform="matrix(.7492098 0 0 .7513647 -31.461335 -73.08846)" font-size="6.29" font-family="Unnamed"><tspan y="172.31774" x="376.43724">&#x2192;</tspan></text>
<text xml:space="preserve" transform="matrix(.7492098 0 0 .7513647 -31.461335 -73.08846)" font-size="6.29" font-family="Unnamed"><tspan y="172.31774" x="394.78007">&#x2192;</tspan></text>
<text xml:space="preserve" transform="matrix(.7492098 0 0 .7513647 -31.461335 -73.08846)" font-size="6.29" font-family="Unnamed"><tspan y="172.31774" x="433.84379">&#x2192;</tspan></text>
<text xml:space="preserve" transform="matrix(.7492098 0 0 .7513647 -31.461335 -73.08846)" font-size="6.29" font-family="Unnamed"><tspan y="172.31774" x="450.50169">&#x2192;</tspan></text>
<text xml:space="preserve" transform="matrix(.7492098 0 0 .7513647 -31.461335 -73.08846)" font-size="6.29" font-family="Unnamed"><tspan y="273.317" x="250.85713">&#x2192;</tspan></text>
<text xml:space="preserve" transform="matrix(.7492098 0 0 .7513647 -31.461335 -73.08846)" font-size="6.29" font-family="Unnamed"><tspan y="242.6352" x="414.79496">&#x2192;</tspan></text>
<text xml:space="preserve" transform="matrix(.7492098 0 0 .7513647 -31.461335 -73.08846)" font-size="6.29" font-family="Unnamed"><tspan y="268.93403" x="330.53657">&#x2192;</tspan></text>
<text xml:space="preserve" transform="matrix(.7492098 0 0 .7513647 -31.461335 -73.08846)" font-size="6.29" font-family="Unnamed"><tspan y="268.93403" x="348.06944">&#x2192;</tspan></text>
</g>
</g>
</svg>
