<?xml version="1.0" encoding="utf-8"?>
<svg viewBox="60.509 70.515 439.032 320.631" xmlns="http://www.w3.org/2000/svg">
  <defs>
    <marker id="marker-1" viewBox="0 0 100 100" overflow="visible" orient="auto" refX="50" refY="50">
      <path d="M 50.143 14.52 L 100.045 100.953 L 0.24 100.953 L 50.143 14.52 Z" style="fill: rgb(68, 68, 68);" transform="matrix(0, 1, -1, 0, 100.953003, -0.045)"/>
    </marker>
  </defs>
  <rect x="140.506" y="112.886" width="308.625" height="253.872" style="stroke-width: 4px; fill: none; stroke: rgb(188, 188, 188);"/>
  <line style="stroke: rgb(188, 188, 188);" x1="141.499" y1="155.802" x2="447.328" y2="155.802"/>
  <line style="stroke: rgb(188, 188, 188);" x1="140.467" y1="198.029" x2="446.295" y2="198.029"/>
  <line style="stroke: rgb(188, 188, 188);" x1="142.533" y1="240.257" x2="448.361" y2="240.257"/>
  <line style="stroke: rgb(188, 188, 188);" x1="142.017" y1="282.484" x2="447.846" y2="282.484"/>
  <line style="stroke: rgb(188, 188, 188);" x1="142.233" y1="324.712" x2="450.427" y2="324.712"/>
  <line style="stroke: rgb(188, 188, 188);" x1="184.83" y1="114.162" x2="184.83" y2="368.278"/>
  <line style="stroke: rgb(188, 188, 188);" x1="229.02" y1="367.238" x2="229.02" y2="114.095"/>
  <line style="stroke: rgb(188, 188, 188);" x1="273.209" y1="113.849" x2="273.209" y2="366.419"/>
  <line style="stroke: rgb(188, 188, 188);" x1="317.398" y1="368.245" x2="317.398" y2="112.732"/>
  <line style="stroke: rgb(188, 188, 188);" x1="361.587" y1="113.653" x2="361.587" y2="365.632"/>
  <line style="stroke: rgb(188, 188, 188);" x1="405.777" y1="365.187" x2="405.777" y2="112.709"/>
  <line style="marker-end: url(#marker-1); fill: rgb(68, 68, 68); stroke: rgb(68, 68, 68); stroke-width: 2px;" x1="127.114" y1="319.598" x2="81.132" y2="319.598" transform="matrix(0, 1, -1, 0, 423.720978, 215.474991)"/>
  <path d="M 98.256 300.317 L 97.116 300.317 L 96.916 299.617 L 96.836 299.617 C 96.676 299.87 96.449 300.067 96.156 300.207 C 95.863 300.347 95.529 300.417 95.156 300.417 C 94.516 300.417 94.033 300.244 93.706 299.897 C 93.379 299.557 93.216 299.064 93.216 298.417 L 93.216 294.857 L 94.706 294.857 L 94.706 298.047 C 94.706 298.44 94.776 298.737 94.916 298.937 C 95.056 299.13 95.279 299.227 95.586 299.227 C 96.006 299.227 96.306 299.087 96.486 298.807 C 96.673 298.534 96.766 298.074 96.766 297.427 L 96.766 294.857 L 98.256 294.857 L 98.256 300.317 Z" transform="matrix(1, 0, 0, 1, 0, 0)" style="fill: rgb(51, 51, 51); white-space: pre;"/>
  <path d="M 131.971 321.245 C 131.331 321.245 130.828 320.995 130.461 320.495 C 130.094 319.995 129.911 319.305 129.911 318.425 C 129.911 317.532 130.098 316.835 130.471 316.335 C 130.844 315.835 131.358 315.585 132.011 315.585 C 132.698 315.585 133.221 315.852 133.581 316.385 L 133.631 316.385 C 133.558 315.978 133.521 315.615 133.521 315.295 L 133.521 313.545 L 135.011 313.545 L 135.011 321.145 L 133.871 321.145 L 133.581 320.435 L 133.521 320.435 C 133.181 320.975 132.664 321.245 131.971 321.245 Z M 132.491 320.055 C 132.871 320.055 133.151 319.945 133.331 319.725 C 133.511 319.505 133.608 319.128 133.621 318.595 L 133.621 318.435 C 133.621 317.848 133.531 317.428 133.351 317.175 C 133.171 316.922 132.878 316.795 132.471 316.795 C 132.138 316.795 131.878 316.935 131.691 317.215 C 131.511 317.495 131.421 317.905 131.421 318.445 C 131.421 318.985 131.514 319.388 131.701 319.655 C 131.881 319.922 132.144 320.055 132.491 320.055 Z" transform="matrix(1, 0, 0, 1, 0, 0)" style="fill: rgb(51, 51, 51); white-space: pre;"/>
  <line style="marker-end: url(#marker-1); fill: rgb(68, 68, 68); stroke: rgb(68, 68, 68); stroke-width: 2px;" x1="121.078" y1="323.964" x2="121.078" y2="371.19" transform="matrix(0, -1, 1, 0, -220.827988, 462.984009)"/>
  <path d="M 140.764 350.463 C 141.411 350.463 141.914 350.713 142.274 351.213 C 142.641 351.72 142.824 352.41 142.824 353.283 C 142.824 354.183 142.634 354.883 142.254 355.383 C 141.881 355.876 141.371 356.123 140.724 356.123 C 140.084 356.123 139.581 355.89 139.214 355.423 L 139.114 355.423 L 138.864 356.023 L 137.724 356.023 L 137.724 348.423 L 139.214 348.423 L 139.214 350.193 C 139.214 350.42 139.194 350.78 139.154 351.273 L 139.214 351.273 C 139.561 350.733 140.077 350.463 140.764 350.463 Z M 140.284 351.653 C 139.917 351.653 139.647 351.766 139.474 351.993 C 139.307 352.22 139.221 352.593 139.214 353.113 L 139.214 353.273 C 139.214 353.86 139.301 354.28 139.474 354.533 C 139.647 354.786 139.924 354.913 140.304 354.913 C 140.611 354.913 140.854 354.773 141.034 354.493 C 141.214 354.213 141.304 353.803 141.304 353.263 C 141.304 352.73 141.214 352.326 141.034 352.053 C 140.847 351.786 140.597 351.653 140.284 351.653 Z" transform="matrix(1, 0, 0, 1, 0, 0)" style="fill: rgb(51, 51, 51); white-space: pre;"/>
  <path d="M 150.981 351.833 L 146.441 351.833 L 146.441 351.163 L 150.981 351.163 L 150.981 351.833 Z M 150.981 353.833 L 146.441 353.833 L 146.441 353.163 L 150.981 353.163 L 150.981 353.833 Z" transform="matrix(1, 0, 0, 1, 0, 0)" style="fill: rgb(51, 51, 51); white-space: pre;"/>
  <path d="M 156.678 356.123 C 156.038 356.123 155.535 355.873 155.168 355.373 C 154.802 354.873 154.618 354.183 154.618 353.303 C 154.618 352.41 154.805 351.713 155.178 351.213 C 155.552 350.713 156.065 350.463 156.718 350.463 C 157.405 350.463 157.928 350.73 158.288 351.263 L 158.338 351.263 C 158.265 350.856 158.228 350.493 158.228 350.173 L 158.228 348.423 L 159.718 348.423 L 159.718 356.023 L 158.578 356.023 L 158.288 355.313 L 158.228 355.313 C 157.888 355.853 157.372 356.123 156.678 356.123 Z M 157.198 354.933 C 157.578 354.933 157.858 354.823 158.038 354.603 C 158.218 354.383 158.315 354.006 158.328 353.473 L 158.328 353.313 C 158.328 352.726 158.238 352.306 158.058 352.053 C 157.878 351.8 157.585 351.673 157.178 351.673 C 156.845 351.673 156.585 351.813 156.398 352.093 C 156.218 352.373 156.128 352.783 156.128 353.323 C 156.128 353.863 156.222 354.266 156.408 354.533 C 156.588 354.8 156.852 354.933 157.198 354.933 ZM 174.065 356.023 L 172.925 356.023 L 172.725 355.323 L 172.645 355.323 C 172.485 355.576 172.259 355.773 171.965 355.913 C 171.672 356.053 171.339 356.123 170.965 356.123 C 170.325 356.123 169.842 355.95 169.515 355.603 C 169.189 355.263 169.025 354.77 169.025 354.123 L 169.025 350.563 L 170.515 350.563 L 170.515 353.753 C 170.515 354.146 170.585 354.443 170.725 354.643 C 170.865 354.836 171.089 354.933 171.395 354.933 C 171.815 354.933 172.115 354.793 172.295 354.513 C 172.482 354.24 172.575 353.78 172.575 353.133 L 172.575 350.563 L 174.065 350.563 L 174.065 356.023 Z" transform="matrix(1, 0, 0, 1, 0, 0)" style="fill: rgb(51, 51, 51); white-space: pre;"/>
  <g transform="matrix(1, 0, 0, 1, 56.517509, 89.801987)">
    <line style="stroke: rgb(0, 0, 0);" x1="106.444" y1="265.369" x2="109.678" y2="262.135"/>
    <line style="stroke: rgb(0, 0, 0);" x1="106.444" y1="265.369" x2="109.678" y2="262.136" transform="matrix(0, -1, 1, 0, -155.691486, 371.813488)"/>
  </g>
  <line style="stroke: rgb(255, 0, 0);" x1="104.262" y1="341.793" x2="448.618" y2="240.186"/>
  <line style="stroke: rgb(255, 0, 0);" x1="104.262" y1="341.793" x2="294.671" y2="240.614"/>
  <line style="stroke: rgb(255, 0, 0);" x1="104.262" y1="342.041" x2="140.844" y2="240.426"/>
  <line style="marker-end: url(#marker-1); fill: rgb(68, 68, 68); stroke: rgb(68, 68, 68); stroke-width: 2px;" x1="151.186" y1="335.677" x2="110.301" y2="357.028" transform="matrix(-1, 0, 0, -1, 255.253998, 677.364014)"/>
  <circle style="" cx="294.91" cy="240.291" r="2.413"/>
  <path d="M 293.995 254.955 C 292.295 254.955 291.445 254.022 291.445 252.155 C 291.445 251.228 291.675 250.518 292.135 250.025 C 292.602 249.538 293.265 249.295 294.125 249.295 C 294.758 249.295 295.325 249.418 295.825 249.665 L 295.385 250.815 C 295.152 250.722 294.935 250.645 294.735 250.585 C 294.528 250.525 294.325 250.495 294.125 250.495 C 293.352 250.495 292.965 251.045 292.965 252.145 C 292.965 253.212 293.352 253.745 294.125 253.745 C 294.412 253.745 294.678 253.708 294.925 253.635 C 295.165 253.555 295.408 253.435 295.655 253.275 L 295.655 254.545 C 295.415 254.698 295.172 254.805 294.925 254.865 C 294.678 254.925 294.368 254.955 293.995 254.955 Z" transform="matrix(1, 0, 0, 1, 0, 0)" style="fill: rgb(51, 51, 51); white-space: pre;"/>
  <path d="M 303.847 250.665 L 299.307 250.665 L 299.307 249.995 L 303.847 249.995 L 303.847 250.665 Z M 303.847 252.665 L 299.307 252.665 L 299.307 251.995 L 303.847 251.995 L 303.847 252.665 Z" transform="matrix(1, 0, 0, 1, 0, 0)" style="fill: rgb(51, 51, 51); white-space: pre;"/>
  <path d="M 309.004 252.115 C 309.004 252.655 309.091 253.065 309.264 253.345 C 309.444 253.618 309.734 253.755 310.134 253.755 C 310.534 253.755 310.821 253.618 310.994 253.345 C 311.167 253.072 311.254 252.662 311.254 252.115 C 311.254 251.575 311.167 251.168 310.994 250.895 C 310.814 250.628 310.524 250.495 310.124 250.495 C 309.731 250.495 309.444 250.628 309.264 250.895 C 309.091 251.168 309.004 251.575 309.004 252.115 Z M 312.774 252.115 C 312.774 253.002 312.541 253.698 312.074 254.205 C 311.607 254.705 310.954 254.955 310.114 254.955 C 309.587 254.955 309.124 254.838 308.724 254.605 C 308.324 254.378 308.017 254.048 307.804 253.615 C 307.591 253.188 307.484 252.688 307.484 252.115 C 307.484 251.222 307.717 250.528 308.184 250.035 C 308.651 249.542 309.304 249.295 310.144 249.295 C 310.671 249.295 311.134 249.408 311.534 249.635 C 311.934 249.862 312.241 250.188 312.454 250.615 C 312.667 251.042 312.774 251.542 312.774 252.115 Z" transform="matrix(1, 0, 0, 1, 0, 0)" style="fill: rgb(51, 51, 51); white-space: pre;"/>
  <path d="M 319.004 248.905 L 319.004 250.995 L 321.014 250.995 L 321.014 251.665 L 319.004 251.665 L 319.004 253.745 L 318.324 253.745 L 318.324 251.665 L 316.324 251.665 L 316.324 250.995 L 318.324 250.995 L 318.324 248.905 L 319.004 248.905 Z" transform="matrix(1, 0, 0, 1, 0, 0)" style="fill: rgb(51, 51, 51); white-space: pre;"/>
  <path d="M 326.712 254.285 C 326.852 254.285 326.988 254.275 327.122 254.255 C 327.255 254.235 327.362 254.212 327.442 254.185 L 327.442 254.805 C 327.355 254.845 327.225 254.882 327.052 254.915 C 326.885 254.942 326.732 254.955 326.592 254.955 C 325.558 254.955 325.042 254.408 325.042 253.315 L 325.042 250.135 L 324.272 250.135 L 324.272 249.745 L 325.042 249.405 L 325.382 248.265 L 325.852 248.265 L 325.852 249.505 L 327.402 249.505 L 327.402 250.135 L 325.852 250.135 L 325.852 253.285 C 325.852 253.605 325.928 253.852 326.082 254.025 C 326.235 254.198 326.445 254.285 326.712 254.285 Z" transform="matrix(1, 0, 0, 1, 0, 0)" style="fill: rgb(51, 51, 51); white-space: pre;"/>
  <path d="M 330.158 254.955 C 329.518 254.955 329.015 254.705 328.648 254.205 C 328.282 253.705 328.098 253.015 328.098 252.135 C 328.098 251.242 328.285 250.545 328.658 250.045 C 329.032 249.545 329.545 249.295 330.198 249.295 C 330.885 249.295 331.408 249.562 331.768 250.095 L 331.818 250.095 C 331.745 249.688 331.708 249.325 331.708 249.005 L 331.708 247.255 L 333.198 247.255 L 333.198 254.855 L 332.058 254.855 L 331.768 254.145 L 331.708 254.145 C 331.368 254.685 330.852 254.955 330.158 254.955 Z M 330.678 253.765 C 331.058 253.765 331.338 253.655 331.518 253.435 C 331.698 253.215 331.795 252.838 331.808 252.305 L 331.808 252.145 C 331.808 251.558 331.718 251.138 331.538 250.885 C 331.358 250.632 331.065 250.505 330.658 250.505 C 330.325 250.505 330.065 250.645 329.878 250.925 C 329.698 251.205 329.608 251.615 329.608 252.155 C 329.608 252.695 329.702 253.098 329.888 253.365 C 330.068 253.632 330.332 253.765 330.678 253.765 Z" transform="matrix(1, 0, 0, 1, 0, 0)" style="fill: rgb(51, 51, 51); white-space: pre;"/>
  <line style="stroke: rgb(0, 0, 0);" x1="164.44957411681958" y1="104.2297638918809" x2="429.61243114227454" y2="104.2297638918809"/>
  <line style="stroke: rgb(0, 0, 0);" x1="456.837" y1="133.195" x2="456.837" y2="344.954"/>
  <path d="M 297.917 97.5 L 296.957 97.5 L 295.977 94.36 C 295.917 94.167 295.8 93.73 295.627 93.05 L 295.587 93.05 C 295.46 93.623 295.347 94.063 295.247 94.37 L 294.237 97.5 L 293.297 97.5 L 291.837 92.15 L 292.687 92.15 C 293.034 93.497 293.297 94.52 293.477 95.22 C 293.657 95.92 293.76 96.393 293.787 96.64 L 293.827 96.64 C 293.86 96.453 293.917 96.213 293.997 95.92 C 294.077 95.627 294.147 95.393 294.207 95.22 L 295.187 92.15 L 296.067 92.15 L 297.027 95.22 C 297.207 95.78 297.33 96.25 297.397 96.63 L 297.437 96.63 C 297.45 96.517 297.484 96.337 297.537 96.09 C 297.597 95.843 297.937 94.53 298.557 92.15 L 299.397 92.15 L 297.917 97.5 Z" transform="matrix(1, 0, 0, 1, 0, 0)" style="fill: rgb(51, 51, 51); white-space: pre;"/>
  <path d="M 466.017 243.251 L 465.207 243.251 L 465.207 239.791 C 465.207 239.351 465.107 239.024 464.907 238.811 C 464.714 238.598 464.404 238.491 463.977 238.491 C 463.417 238.491 463.007 238.644 462.747 238.951 C 462.487 239.258 462.357 239.758 462.357 240.451 L 462.357 243.251 L 461.547 243.251 L 461.547 235.651 L 462.357 235.651 L 462.357 237.951 C 462.357 238.231 462.344 238.461 462.317 238.641 L 462.367 238.641 C 462.527 238.381 462.754 238.178 463.047 238.031 C 463.34 237.884 463.677 237.811 464.057 237.811 C 464.71 237.811 465.2 237.968 465.527 238.281 C 465.854 238.588 466.017 239.081 466.017 239.761 L 466.017 243.251 Z" transform="matrix(1, 0, 0, 1, 0, 0)" style="fill: rgb(51, 51, 51); white-space: pre;"/>
  <path d="M 247.719 275.595 C 247.859 275.595 247.996 275.585 248.129 275.565 C 248.262 275.545 248.369 275.522 248.449 275.495 L 248.449 276.115 C 248.362 276.155 248.232 276.192 248.059 276.225 C 247.892 276.252 247.739 276.265 247.599 276.265 C 246.566 276.265 246.049 275.718 246.049 274.625 L 246.049 271.445 L 245.279 271.445 L 245.279 271.055 L 246.049 270.715 L 246.389 269.575 L 246.859 269.575 L 246.859 270.815 L 248.409 270.815 L 248.409 271.445 L 246.859 271.445 L 246.859 274.595 C 246.859 274.915 246.936 275.162 247.089 275.335 C 247.242 275.508 247.452 275.595 247.719 275.595 Z" transform="matrix(1, 0, 0, 1, 0, 0)" style="fill: rgb(255, 0, 0); white-space: pre;"/>
  <g transform="matrix(1, 0, 0, 1, -47.615707, -46.932564)">
    <path d="M 185.895 212.598 C 185.255 212.598 184.752 212.365 184.385 211.898 L 184.305 211.898 C 184.358 212.351 184.385 212.615 184.385 212.688 L 184.385 214.898 L 182.895 214.898 L 182.895 207.038 L 184.105 207.038 L 184.315 207.748 L 184.385 207.748 C 184.732 207.208 185.248 206.938 185.935 206.938 C 186.582 206.938 187.085 207.188 187.445 207.688 C 187.812 208.181 187.995 208.871 187.995 209.758 C 187.995 210.338 187.908 210.845 187.735 211.278 C 187.568 211.705 187.325 212.031 187.005 212.258 C 186.692 212.485 186.322 212.598 185.895 212.598 Z M 185.455 208.128 C 185.088 208.128 184.818 208.241 184.645 208.468 C 184.478 208.695 184.392 209.068 184.385 209.588 L 184.385 209.748 C 184.385 210.335 184.472 210.755 184.645 211.008 C 184.818 211.261 185.095 211.388 185.475 211.388 C 186.142 211.388 186.475 210.838 186.475 209.738 C 186.475 209.205 186.392 208.801 186.225 208.528 C 186.065 208.261 185.808 208.128 185.455 208.128 Z" transform="matrix(1, 0, 0, 1, 0, 0)" style="fill: rgb(51, 51, 51); white-space: pre;"/>
    <path d="M 190.873 213.741 C 190.873 214.468 190.76 215.011 190.533 215.371 C 190.3 215.731 189.946 215.911 189.473 215.911 C 189.02 215.911 188.676 215.728 188.443 215.361 C 188.203 214.988 188.083 214.448 188.083 213.741 C 188.083 213.008 188.2 212.461 188.433 212.101 C 188.66 211.748 189.006 211.571 189.473 211.571 C 189.933 211.571 190.28 211.758 190.513 212.131 C 190.753 212.498 190.873 213.034 190.873 213.741 Z M 188.573 213.741 C 188.573 214.354 188.643 214.801 188.783 215.081 C 188.93 215.361 189.16 215.501 189.473 215.501 C 189.793 215.501 190.026 215.358 190.173 215.071 C 190.313 214.791 190.383 214.348 190.383 213.741 C 190.383 213.134 190.313 212.691 190.173 212.411 C 190.026 212.131 189.793 211.991 189.473 211.991 C 189.16 211.991 188.93 212.128 188.783 212.401 C 188.643 212.681 188.573 213.128 188.573 213.741 ZM 194.241 213.741 C 194.241 214.468 194.127 215.011 193.901 215.371 C 193.667 215.731 193.314 215.911 192.841 215.911 C 192.387 215.911 192.044 215.728 191.811 215.361 C 191.571 214.988 191.451 214.448 191.451 213.741 C 191.451 213.008 191.567 212.461 191.801 212.101 C 192.027 211.748 192.374 211.571 192.841 211.571 C 193.301 211.571 193.647 211.758 193.881 212.131 C 194.121 212.498 194.241 213.034 194.241 213.741 Z M 191.941 213.741 C 191.941 214.354 192.011 214.801 192.151 215.081 C 192.297 215.361 192.527 215.501 192.841 215.501 C 193.161 215.501 193.394 215.358 193.541 215.071 C 193.681 214.791 193.751 214.348 193.751 213.741 C 193.751 213.134 193.681 212.691 193.541 212.411 C 193.394 212.131 193.161 211.991 192.841 211.991 C 192.527 211.991 192.297 212.128 192.151 212.401 C 192.011 212.681 191.941 213.128 191.941 213.741 Z" transform="matrix(1, 0, 0, 1, 0, 0)" style="fill: rgb(51, 51, 51); white-space: pre;"/>
  </g>
  <g transform="matrix(1, 0, 0, 1, 133.715973, 81.772957)"/>
  <line style="marker-end: url(#marker-1); fill: rgb(68, 68, 68); stroke: rgb(68, 68, 68); stroke-width: 2px;" x1="208.656" y1="134.503" x2="162.674" y2="134.503" transform="matrix(-1, 0, 0, -1, 371.330017, 269.006012)"/>
  <line style="marker-end: url(#marker-1); fill: rgb(68, 68, 68); stroke: rgb(68, 68, 68); stroke-width: 2px;" x1="185.337" y1="157.374" x2="139.355" y2="157.374" transform="matrix(0, -1, 1, 0, 4.972008, 319.720001)"/>
  <circle style="" cx="162.129" cy="134.6" r="2.413"/>
  <g transform="matrix(1, 0, 0, 1, 46.201897, -6.02073)">
    <path d="M 169.627 141.24 C 170.007 141.24 170.284 141.133 170.457 140.92 C 170.637 140.7 170.734 140.32 170.747 139.78 L 170.747 139.6 C 170.747 139.013 170.657 138.593 170.477 138.34 C 170.297 138.087 170.007 137.96 169.607 137.96 C 168.907 137.96 168.557 138.51 168.557 139.61 C 168.557 140.157 168.644 140.567 168.817 140.84 C 168.99 141.107 169.26 141.24 169.627 141.24 Z M 169.097 142.41 C 168.45 142.41 167.947 142.16 167.587 141.66 C 167.22 141.167 167.037 140.477 167.037 139.59 C 167.037 138.697 167.224 138 167.597 137.5 C 167.97 137 168.48 136.75 169.127 136.75 C 169.474 136.75 169.774 136.813 170.027 136.94 C 170.287 137.073 170.514 137.277 170.707 137.55 L 170.747 137.55 L 170.877 136.85 L 172.137 136.85 L 172.137 144.71 L 170.647 144.71 L 170.647 142.42 C 170.647 142.22 170.667 141.947 170.707 141.6 L 170.647 141.6 C 170.487 141.867 170.274 142.067 170.007 142.2 C 169.747 142.34 169.444 142.41 169.097 142.41 Z" transform="matrix(1, 0, 0, 1, 0, 0)" style="fill: rgb(51, 51, 51); white-space: pre;"/>
    <path d="M 175.915 145.663 L 175.355 145.663 L 174.775 143.813 C 174.735 143.7 174.665 143.443 174.565 143.043 L 174.545 143.043 C 174.465 143.376 174.398 143.633 174.345 143.813 L 173.745 145.663 L 173.195 145.663 L 172.335 142.503 L 172.835 142.503 C 173.035 143.296 173.188 143.9 173.295 144.313 C 173.402 144.733 173.465 145.013 173.485 145.153 L 173.505 145.153 C 173.525 145.046 173.558 144.906 173.605 144.733 C 173.652 144.56 173.692 144.42 173.725 144.313 L 174.305 142.503 L 174.825 142.503 L 175.395 144.313 C 175.502 144.646 175.572 144.926 175.605 145.153 L 175.635 145.153 C 175.642 145.08 175.662 144.973 175.695 144.833 C 175.728 144.686 175.928 143.91 176.295 142.503 L 176.795 142.503 L 175.915 145.663 Z" transform="matrix(1, 0, 0, 1, 0, 0)" style="fill: rgb(51, 51, 51); white-space: pre;"/>
  </g>
  <g transform="matrix(1, 0, 0, 1, -7.584907, 48.05043)">
    <path d="M 169.627 141.24 C 170.007 141.24 170.284 141.133 170.457 140.92 C 170.637 140.7 170.734 140.32 170.747 139.78 L 170.747 139.6 C 170.747 139.013 170.657 138.593 170.477 138.34 C 170.297 138.087 170.007 137.96 169.607 137.96 C 168.907 137.96 168.557 138.51 168.557 139.61 C 168.557 140.157 168.644 140.567 168.817 140.84 C 168.99 141.107 169.26 141.24 169.627 141.24 Z M 169.097 142.41 C 168.45 142.41 167.947 142.16 167.587 141.66 C 167.22 141.167 167.037 140.477 167.037 139.59 C 167.037 138.697 167.224 138 167.597 137.5 C 167.97 137 168.48 136.75 169.127 136.75 C 169.474 136.75 169.774 136.813 170.027 136.94 C 170.287 137.073 170.514 137.277 170.707 137.55 L 170.747 137.55 L 170.877 136.85 L 172.137 136.85 L 172.137 144.71 L 170.647 144.71 L 170.647 142.42 C 170.647 142.22 170.667 141.947 170.707 141.6 L 170.647 141.6 C 170.487 141.867 170.274 142.067 170.007 142.2 C 169.747 142.34 169.444 142.41 169.097 142.41 Z" transform="matrix(1, 0, 0, 1, 0, 0)" style="fill: rgb(51, 51, 51); white-space: pre;"/>
    <path d="M 175.415 145.663 L 174.935 145.663 L 174.935 143.623 C 174.935 143.363 174.875 143.17 174.755 143.043 C 174.642 142.916 174.458 142.853 174.205 142.853 C 173.872 142.853 173.628 142.943 173.475 143.123 C 173.328 143.303 173.255 143.6 173.255 144.013 L 173.255 145.663 L 172.775 145.663 L 172.775 141.183 L 173.255 141.183 L 173.255 142.533 C 173.255 142.7 173.245 142.836 173.225 142.943 L 173.255 142.943 C 173.348 142.79 173.482 142.67 173.655 142.583 C 173.828 142.496 174.028 142.453 174.255 142.453 C 174.642 142.453 174.932 142.546 175.125 142.733 C 175.318 142.913 175.415 143.203 175.415 143.603 L 175.415 145.663 Z" transform="matrix(1, 0, 0, 1, 0, 0)" style="fill: rgb(51, 51, 51); white-space: pre;"/>
  </g>
  <line style="marker-end: url(#marker-1); fill: rgb(68, 68, 68); stroke: rgb(68, 68, 68); stroke-width: 2px;" x1="191.021" y1="195.074" x2="-13.753" y2="139.883" transform="matrix(0, 1, -1, 0, 300.031006, 150.011993)"/>
  <path d="M 96.255 346.473 C 96.255 347.013 96.342 347.423 96.515 347.703 C 96.695 347.976 96.985 348.113 97.385 348.113 C 97.785 348.113 98.072 347.976 98.245 347.703 C 98.418 347.43 98.505 347.02 98.505 346.473 C 98.505 345.933 98.418 345.526 98.245 345.253 C 98.065 344.986 97.775 344.853 97.375 344.853 C 96.982 344.853 96.695 344.986 96.515 345.253 C 96.342 345.526 96.255 345.933 96.255 346.473 Z M 100.025 346.473 C 100.025 347.36 99.792 348.056 99.325 348.563 C 98.858 349.063 98.205 349.313 97.365 349.313 C 96.838 349.313 96.375 349.196 95.975 348.963 C 95.575 348.736 95.268 348.406 95.055 347.973 C 94.842 347.546 94.735 347.046 94.735 346.473 C 94.735 345.58 94.968 344.886 95.435 344.393 C 95.902 343.9 96.555 343.653 97.395 343.653 C 97.922 343.653 98.385 343.766 98.785 343.993 C 99.185 344.22 99.492 344.546 99.705 344.973 C 99.918 345.4 100.025 345.9 100.025 346.473 Z" transform="matrix(1, 0, 0, 1, 0, 0)" style="fill: rgb(51, 51, 51); white-space: pre;"/>
  <path style="fill: none; stroke: rgb(68, 68, 68);" d="M 117.989 342.014 L 126.765 337.184 L 113.913 337.225 L 114.148 325.467 L 104.582 329.541 L 118.448 329.475 L 117.989 342.014 Z"/>
  <path style="fill: none; stroke: rgb(78, 215, 142);" d="M 117.07 306.985 C 117.07 306.985 155.019 287.336 199.928 290.995 C 226.774 293.182 218.896 308.103 218.896 308.103"/>
  <path d="M 153.64 287.834 C 153.64 289.154 153.423 290.134 152.99 290.774 C 152.55 291.421 151.883 291.744 150.99 291.744 C 150.13 291.744 149.477 291.407 149.03 290.734 C 148.583 290.067 148.36 289.101 148.36 287.834 C 148.36 286.507 148.577 285.527 149.01 284.894 C 149.45 284.254 150.11 283.934 150.99 283.934 C 151.857 283.934 152.513 284.264 152.96 284.924 C 153.413 285.591 153.64 286.561 153.64 287.834 Z M 150.99 290.664 C 151.37 290.664 151.647 290.474 151.82 290.094 C 151.993 289.714 152.09 289.137 152.11 288.364 L 149.88 288.364 C 149.893 289.131 149.983 289.704 150.15 290.084 C 150.323 290.471 150.603 290.664 150.99 290.664 Z M 151 285.014 C 150.647 285.014 150.38 285.187 150.2 285.534 C 150.027 285.881 149.923 286.454 149.89 287.254 L 152.11 287.254 C 152.083 286.507 151.983 285.947 151.81 285.574 C 151.643 285.201 151.373 285.014 151 285.014 Z" transform="matrix(1, 0, 0, 1, 0, 0)" style="fill: rgb(78, 215, 142); white-space: pre;"/>
</svg>