<?xml version="1.0" encoding="utf-8"?>
<svg viewBox="0 0 761.326 177.448" xmlns="http://www.w3.org/2000/svg">
  <g id="Layer_2" data-name="Layer 2">
    <g id="Layer_1-2" data-name="Layer 1">
      <rect x="60.91" y="12.87" width="182.19" height="126.74" style="fill:#fff;stroke:#be1e2d;stroke-miterlimit:10;opacity:0.75"/>
      <rect x="48.74" y="21.89" width="182.19" height="126.74" style="fill:#fff;stroke:#231f20;stroke-miterlimit:10;opacity:0.75"/>
      <rect x="36.78" y="31.55" width="182.19" height="126.74" style="fill:#fff;stroke:#2e3192;stroke-miterlimit:10;opacity:0.75"/>
      <rect x="304.87" y="21.89" width="182.19" height="126.74" style="fill:#fff;stroke:#be1e2d;stroke-miterlimit:10;opacity:0.75"/>
      <line x1="298.84" y1="85.26" x2="230.93" y2="85.26" style="fill:none;stroke:#231f20;stroke-linecap:round;stroke-miterlimit:10"/>
      <path d="M305.47,85.64a30.31,30.31,0,0,1-8.55-4.75l1.72,4.75-1.72,4.76A30.34,30.34,0,0,1,305.47,85.64Z" transform="translate(-0.6 -0.38)" style="fill:#231f20"/>
      <line x1="286.88" y1="94.92" x2="218.97" y2="94.92" style="fill:none;stroke:#231f20;stroke-linecap:round;stroke-miterlimit:10"/>
      <path d="M293.51,95.3A30.45,30.45,0,0,1,285,90.54l1.72,4.76L285,100.05A30.18,30.18,0,0,1,293.51,95.3Z" transform="translate(-0.6 -0.38)" style="fill:#231f20"/>
      <line x1="261.92" y1="85.2" x2="273.49" y2="76.24" style="fill:none;stroke:#231f20;stroke-linecap:round;stroke-miterlimit:10"/>
      <line x1="243.1" y1="76.24" x2="273.49" y2="76.24" style="fill:none;stroke:#231f20;stroke-linecap:round;stroke-miterlimit:10"/>
      <line x1="543.01" y1="94.25" x2="475.1" y2="94.25" style="fill:none;stroke:#231f20;stroke-linecap:round;stroke-miterlimit:10"/>
      <path d="M549.64,94.63a30.12,30.12,0,0,1-8.54-4.75l1.72,4.75-1.72,4.76A29.91,29.91,0,0,1,549.64,94.63Z" transform="translate(-0.6 -0.38)" style="fill:#231f20"/>
      <line x1="506.09" y1="94.19" x2="517.66" y2="85.23" style="fill:none;stroke:#231f20;stroke-linecap:round;stroke-miterlimit:10"/>
      <line x1="487.27" y1="85.23" x2="517.66" y2="85.23" style="fill:none;stroke:#231f20;stroke-linecap:round;stroke-miterlimit:10"/>
      <rect x="292.91" y="31.55" width="182.19" height="126.74" style="fill:#fff;stroke:#2e3192;stroke-miterlimit:10;opacity:0.75"/>
      <rect x="549.05" y="30.88" width="182.19" height="126.74" style="fill:#fff;stroke:#be1e2d;stroke-miterlimit:10;opacity:0.75"/>
      <path d="M 313.093 15.796 C 312.666 15.796 312.293 15.696 311.973 15.496 C 311.653 15.296 311.406 15.016 311.233 14.656 C 311.053 14.303 310.963 13.889 310.963 13.416 L 310.963 13.236 C 310.963 12.783 311.05 12.379 311.223 12.026 C 311.39 11.666 311.633 11.383 311.953 11.176 C 312.273 10.969 312.653 10.866 313.093 10.866 C 313.48 10.866 313.816 10.929 314.103 11.056 C 314.396 11.183 314.64 11.353 314.833 11.566 L 314.853 12.716 L 314.183 12.716 L 314.033 11.886 C 313.933 11.779 313.806 11.696 313.653 11.636 C 313.506 11.576 313.33 11.546 313.123 11.546 C 312.87 11.546 312.646 11.623 312.453 11.776 C 312.253 11.929 312.1 12.133 311.993 12.386 C 311.886 12.639 311.833 12.923 311.833 13.236 L 311.833 13.416 C 311.833 13.763 311.883 14.066 311.983 14.326 C 312.083 14.579 312.23 14.776 312.423 14.916 C 312.61 15.056 312.833 15.126 313.093 15.126 C 313.386 15.126 313.63 15.043 313.823 14.876 C 314.016 14.716 314.136 14.496 314.183 14.216 L 314.953 14.216 L 314.963 14.246 C 314.95 14.519 314.87 14.773 314.723 15.006 C 314.576 15.246 314.366 15.436 314.093 15.576 C 313.826 15.723 313.493 15.796 313.093 15.796 ZM 317.887 15.796 C 317.447 15.796 317.07 15.693 316.757 15.486 C 316.437 15.279 316.19 14.996 316.017 14.636 C 315.843 14.269 315.757 13.853 315.757 13.386 L 315.757 13.286 C 315.757 12.819 315.843 12.403 316.017 12.036 C 316.19 11.669 316.437 11.383 316.757 11.176 C 317.07 10.969 317.447 10.866 317.887 10.866 C 318.32 10.866 318.697 10.969 319.017 11.176 C 319.337 11.383 319.583 11.669 319.757 12.036 C 319.93 12.396 320.017 12.813 320.017 13.286 L 320.017 13.386 C 320.017 13.853 319.93 14.269 319.757 14.636 C 319.583 15.003 319.337 15.286 319.017 15.486 C 318.703 15.693 318.327 15.796 317.887 15.796 Z M 317.887 15.126 C 318.167 15.126 318.4 15.049 318.587 14.896 C 318.773 14.743 318.913 14.536 319.007 14.276 C 319.1 14.016 319.147 13.719 319.147 13.386 L 319.147 13.286 C 319.147 12.953 319.1 12.653 319.007 12.386 C 318.913 12.126 318.77 11.919 318.577 11.766 C 318.39 11.619 318.16 11.546 317.887 11.546 C 317.607 11.546 317.373 11.619 317.187 11.766 C 317 11.919 316.86 12.126 316.767 12.386 C 316.673 12.653 316.627 12.953 316.627 13.286 L 316.627 13.386 C 316.627 13.719 316.673 14.016 316.767 14.276 C 316.86 14.536 317 14.743 317.187 14.896 C 317.38 15.049 317.613 15.126 317.887 15.126 ZM 322.971 15.706 L 320.681 15.706 L 320.681 15.156 L 321.391 15.026 L 321.391 11.636 L 320.681 11.506 L 320.681 10.956 L 322.171 10.956 L 322.231 11.566 C 322.378 11.346 322.574 11.173 322.821 11.046 C 323.061 10.926 323.338 10.866 323.651 10.866 C 323.964 10.866 324.238 10.939 324.471 11.086 C 324.698 11.233 324.868 11.453 324.981 11.746 C 325.128 11.473 325.324 11.256 325.571 11.096 C 325.818 10.943 326.104 10.866 326.431 10.866 C 326.918 10.866 327.301 11.033 327.581 11.366 C 327.868 11.693 328.011 12.193 328.011 12.866 L 328.011 15.026 L 328.721 15.156 L 328.721 15.706 L 326.421 15.706 L 326.421 15.156 L 327.141 15.026 L 327.141 12.856 C 327.141 12.383 327.058 12.049 326.891 11.856 C 326.731 11.663 326.494 11.566 326.181 11.566 C 325.874 11.566 325.631 11.673 325.451 11.886 C 325.271 12.099 325.164 12.366 325.131 12.686 L 325.131 15.026 L 325.851 15.156 L 325.851 15.706 L 323.551 15.706 L 323.551 15.156 L 324.271 15.026 L 324.271 12.856 C 324.271 12.409 324.188 12.083 324.021 11.876 C 323.854 11.669 323.614 11.566 323.301 11.566 C 323.034 11.566 322.818 11.619 322.651 11.726 C 322.478 11.839 322.348 11.993 322.261 12.186 L 322.261 15.026 L 322.971 15.156 L 322.971 15.706 ZM 331.52 17.536 L 329.22 17.536 L 329.22 16.976 L 329.9 16.856 L 329.9 11.636 L 329.18 11.506 L 329.18 10.956 L 330.64 10.956 L 330.72 11.536 C 330.873 11.316 331.066 11.149 331.3 11.036 C 331.526 10.923 331.786 10.866 332.08 10.866 C 332.473 10.866 332.81 10.973 333.09 11.186 C 333.37 11.393 333.583 11.689 333.73 12.076 C 333.876 12.456 333.95 12.903 333.95 13.416 L 333.95 13.506 C 333.95 13.966 333.876 14.366 333.73 14.706 C 333.576 15.053 333.363 15.319 333.09 15.506 C 332.816 15.699 332.486 15.796 332.1 15.796 C 331.806 15.796 331.55 15.749 331.33 15.656 C 331.103 15.556 330.913 15.409 330.76 15.216 L 330.76 16.856 L 331.52 16.976 L 331.52 17.536 Z M 331.83 15.126 C 332.236 15.126 332.546 14.976 332.76 14.676 C 332.973 14.376 333.08 13.986 333.08 13.506 L 333.08 13.416 C 333.08 13.056 333.033 12.736 332.94 12.456 C 332.846 12.176 332.706 11.959 332.52 11.806 C 332.333 11.646 332.1 11.566 331.82 11.566 C 331.573 11.566 331.363 11.623 331.19 11.736 C 331.01 11.843 330.866 11.993 330.76 12.186 L 330.76 14.506 C 330.866 14.699 331.01 14.853 331.19 14.966 C 331.363 15.073 331.576 15.126 331.83 15.126 ZM 336.93 15.796 C 336.49 15.796 336.113 15.693 335.8 15.486 C 335.48 15.279 335.233 14.996 335.06 14.636 C 334.887 14.269 334.8 13.853 334.8 13.386 L 334.8 13.286 C 334.8 12.819 334.887 12.403 335.06 12.036 C 335.233 11.669 335.48 11.383 335.8 11.176 C 336.113 10.969 336.49 10.866 336.93 10.866 C 337.363 10.866 337.74 10.969 338.06 11.176 C 338.38 11.383 338.627 11.669 338.8 12.036 C 338.973 12.396 339.06 12.813 339.06 13.286 L 339.06 13.386 C 339.06 13.853 338.973 14.269 338.8 14.636 C 338.627 15.003 338.38 15.286 338.06 15.486 C 337.747 15.693 337.37 15.796 336.93 15.796 Z M 336.93 15.126 C 337.21 15.126 337.443 15.049 337.63 14.896 C 337.817 14.743 337.957 14.536 338.05 14.276 C 338.143 14.016 338.19 13.719 338.19 13.386 L 338.19 13.286 C 338.19 12.953 338.143 12.653 338.05 12.386 C 337.957 12.126 337.813 11.919 337.62 11.766 C 337.433 11.619 337.203 11.546 336.93 11.546 C 336.65 11.546 336.417 11.619 336.23 11.766 C 336.043 11.919 335.903 12.126 335.81 12.386 C 335.717 12.653 335.67 12.953 335.67 13.286 L 335.67 13.386 C 335.67 13.719 335.717 14.016 335.81 14.276 C 335.903 14.536 336.043 14.743 336.23 14.896 C 336.423 15.049 336.657 15.126 336.93 15.126 ZM 341.644 15.796 C 341.324 15.796 341.024 15.766 340.744 15.706 C 340.471 15.639 340.178 15.539 339.864 15.406 L 339.854 14.276 L 340.504 14.276 L 340.664 14.956 C 340.831 15.023 340.991 15.073 341.144 15.106 C 341.298 15.133 341.464 15.146 341.644 15.146 C 341.998 15.146 342.251 15.079 342.404 14.946 C 342.551 14.813 342.624 14.646 342.624 14.446 C 342.624 14.259 342.548 14.099 342.394 13.966 C 342.241 13.839 341.964 13.729 341.564 13.636 C 340.991 13.503 340.568 13.326 340.294 13.106 C 340.021 12.886 339.884 12.593 339.884 12.226 C 339.884 11.966 339.961 11.733 340.114 11.526 C 340.261 11.326 340.468 11.166 340.734 11.046 C 341.001 10.926 341.311 10.866 341.664 10.866 C 342.024 10.866 342.334 10.906 342.594 10.986 C 342.848 11.066 343.071 11.176 343.264 11.316 L 343.304 12.406 L 342.654 12.406 L 342.514 11.766 C 342.414 11.693 342.294 11.636 342.154 11.596 C 342.008 11.556 341.844 11.536 341.664 11.536 C 341.398 11.536 341.178 11.596 341.004 11.716 C 340.838 11.843 340.754 12.003 340.754 12.196 C 340.754 12.309 340.778 12.406 340.824 12.486 C 340.878 12.566 340.971 12.639 341.104 12.706 C 341.244 12.773 341.448 12.839 341.714 12.906 C 342.374 13.059 342.838 13.256 343.104 13.496 C 343.364 13.736 343.494 14.033 343.494 14.386 C 343.494 14.786 343.344 15.123 343.044 15.396 C 342.751 15.663 342.284 15.796 341.644 15.796 ZM 346.471 15.706 L 344.171 15.706 L 344.171 15.156 L 344.891 15.026 L 344.891 11.636 L 344.171 11.506 L 344.171 10.956 L 345.761 10.956 L 345.761 15.026 L 346.471 15.156 L 346.471 15.706 Z M 345.761 9.776 L 344.851 9.776 L 344.851 8.846 L 345.761 8.846 L 345.761 9.776 ZM 348.743 15.776 C 348.396 15.776 348.12 15.673 347.913 15.466 C 347.706 15.266 347.603 14.936 347.603 14.476 L 347.603 11.596 L 346.853 11.596 L 346.853 10.956 L 347.603 10.956 L 347.603 9.806 L 348.463 9.806 L 348.463 10.956 L 349.503 10.956 L 349.503 11.596 L 348.463 11.596 L 348.463 14.476 C 348.463 14.709 348.51 14.879 348.603 14.986 C 348.696 15.093 348.816 15.146 348.963 15.146 C 349.07 15.146 349.186 15.136 349.313 15.116 C 349.44 15.096 349.536 15.079 349.603 15.066 L 349.723 15.636 C 349.596 15.676 349.443 15.709 349.263 15.736 C 349.076 15.763 348.903 15.776 348.743 15.776 ZM 352.35 15.796 C 351.91 15.796 351.527 15.696 351.2 15.496 C 350.88 15.296 350.63 15.016 350.45 14.656 C 350.277 14.303 350.19 13.889 350.19 13.416 L 350.19 13.226 C 350.19 12.773 350.28 12.369 350.46 12.016 C 350.647 11.663 350.897 11.383 351.21 11.176 C 351.517 10.969 351.853 10.866 352.22 10.866 C 352.647 10.866 353.003 10.953 353.29 11.126 C 353.583 11.299 353.803 11.546 353.95 11.866 C 354.097 12.186 354.17 12.559 354.17 12.986 L 354.17 13.526 L 351.08 13.526 L 351.07 13.556 C 351.077 13.856 351.13 14.126 351.23 14.366 C 351.33 14.599 351.477 14.783 351.67 14.916 C 351.857 15.056 352.083 15.126 352.35 15.126 C 352.643 15.126 352.9 15.083 353.12 14.996 C 353.34 14.916 353.533 14.803 353.7 14.656 L 354.03 15.216 C 353.863 15.376 353.64 15.513 353.36 15.626 C 353.08 15.739 352.743 15.796 352.35 15.796 Z M 351.1 12.836 L 351.11 12.856 L 353.3 12.856 L 353.3 12.736 C 353.3 12.509 353.26 12.306 353.18 12.126 C 353.1 11.946 352.98 11.803 352.82 11.696 C 352.66 11.596 352.46 11.546 352.22 11.546 C 352.027 11.546 351.85 11.603 351.69 11.716 C 351.537 11.829 351.407 11.983 351.3 12.176 C 351.2 12.369 351.133 12.589 351.1 12.836 ZM 359.333 15.706 L 357.033 15.706 L 357.033 15.156 L 357.753 15.026 L 357.753 11.636 L 357.033 11.506 L 357.033 10.956 L 358.623 10.956 L 358.623 15.026 L 359.333 15.156 L 359.333 15.706 Z M 358.623 9.776 L 357.713 9.776 L 357.713 8.846 L 358.623 8.846 L 358.623 9.776 ZM 362.225 15.706 L 359.935 15.706 L 359.935 15.156 L 360.645 15.026 L 360.645 11.636 L 359.935 11.506 L 359.935 10.956 L 361.425 10.956 L 361.485 11.566 C 361.632 11.346 361.829 11.173 362.075 11.046 C 362.315 10.926 362.592 10.866 362.905 10.866 C 363.219 10.866 363.492 10.939 363.725 11.086 C 363.952 11.233 364.122 11.453 364.235 11.746 C 364.382 11.473 364.579 11.256 364.825 11.096 C 365.072 10.943 365.359 10.866 365.685 10.866 C 366.172 10.866 366.555 11.033 366.835 11.366 C 367.122 11.693 367.265 12.193 367.265 12.866 L 367.265 15.026 L 367.975 15.156 L 367.975 15.706 L 365.675 15.706 L 365.675 15.156 L 366.395 15.026 L 366.395 12.856 C 366.395 12.383 366.312 12.049 366.145 11.856 C 365.985 11.663 365.749 11.566 365.435 11.566 C 365.129 11.566 364.885 11.673 364.705 11.886 C 364.525 12.099 364.419 12.366 364.385 12.686 L 364.385 15.026 L 365.105 15.156 L 365.105 15.706 L 362.805 15.706 L 362.805 15.156 L 363.525 15.026 L 363.525 12.856 C 363.525 12.409 363.442 12.083 363.275 11.876 C 363.109 11.669 362.869 11.566 362.555 11.566 C 362.289 11.566 362.072 11.619 361.905 11.726 C 361.732 11.839 361.602 11.993 361.515 12.186 L 361.515 15.026 L 362.225 15.156 L 362.225 15.706 ZM 370.144 15.796 C 369.651 15.796 369.274 15.676 369.014 15.436 C 368.761 15.196 368.634 14.856 368.634 14.416 C 368.634 14.116 368.718 13.853 368.884 13.626 C 369.044 13.399 369.281 13.226 369.594 13.106 C 369.908 12.979 370.284 12.916 370.724 12.916 L 371.574 12.916 L 371.574 12.446 C 371.574 12.159 371.488 11.939 371.314 11.786 C 371.134 11.626 370.888 11.546 370.574 11.546 C 370.374 11.546 370.201 11.569 370.054 11.616 C 369.908 11.663 369.774 11.729 369.654 11.816 L 369.564 12.476 L 368.894 12.476 L 368.894 11.386 C 369.108 11.219 369.358 11.089 369.644 10.996 C 369.924 10.909 370.238 10.866 370.584 10.866 C 371.164 10.866 371.618 11.003 371.944 11.276 C 372.271 11.549 372.434 11.943 372.434 12.456 L 372.434 14.746 C 372.434 14.806 372.438 14.866 372.444 14.926 C 372.444 14.986 372.448 15.046 372.454 15.106 L 372.914 15.156 L 372.914 15.706 L 371.664 15.706 C 371.638 15.579 371.618 15.463 371.604 15.356 C 371.591 15.256 371.581 15.156 371.574 15.056 C 371.408 15.269 371.201 15.446 370.954 15.586 C 370.701 15.726 370.431 15.796 370.144 15.796 Z M 370.274 15.076 C 370.561 15.076 370.824 15.006 371.064 14.866 C 371.298 14.726 371.468 14.559 371.574 14.366 L 371.574 13.506 L 370.694 13.506 C 370.294 13.506 369.994 13.603 369.794 13.796 C 369.594 13.983 369.494 14.196 369.494 14.436 C 369.494 14.643 369.561 14.799 369.694 14.906 C 369.821 15.019 370.014 15.076 370.274 15.076 ZM 375.664 17.626 C 375.437 17.626 375.19 17.596 374.924 17.536 C 374.657 17.469 374.424 17.383 374.224 17.276 L 374.444 16.606 C 374.604 16.686 374.794 16.756 375.014 16.816 C 375.234 16.869 375.447 16.896 375.654 16.896 C 376.04 16.896 376.324 16.789 376.504 16.576 C 376.684 16.356 376.774 16.046 376.774 15.646 L 376.774 15.196 C 376.62 15.389 376.437 15.539 376.224 15.646 C 376.004 15.746 375.754 15.796 375.474 15.796 C 375.087 15.796 374.754 15.699 374.474 15.506 C 374.194 15.319 373.977 15.053 373.824 14.706 C 373.67 14.359 373.594 13.959 373.594 13.506 L 373.594 13.416 C 373.594 12.909 373.67 12.463 373.824 12.076 C 373.977 11.689 374.194 11.393 374.474 11.186 C 374.754 10.973 375.09 10.866 375.484 10.866 C 375.784 10.866 376.044 10.923 376.264 11.036 C 376.49 11.156 376.68 11.326 376.834 11.546 L 376.914 10.956 L 377.644 10.956 L 377.644 15.646 C 377.644 16.053 377.567 16.406 377.414 16.706 C 377.26 16.999 377.037 17.226 376.744 17.386 C 376.45 17.546 376.09 17.626 375.664 17.626 Z M 375.684 15.096 C 375.95 15.096 376.17 15.036 376.344 14.916 C 376.517 14.796 376.66 14.629 376.774 14.416 L 376.774 12.226 C 376.667 12.026 376.524 11.866 376.344 11.746 C 376.164 11.626 375.947 11.566 375.694 11.566 C 375.42 11.566 375.194 11.646 375.014 11.806 C 374.827 11.959 374.687 12.176 374.594 12.456 C 374.507 12.736 374.464 13.056 374.464 13.416 L 374.464 13.506 C 374.464 13.986 374.564 14.369 374.764 14.656 C 374.964 14.949 375.27 15.096 375.684 15.096 Z M 378.234 11.506 L 377.514 11.656 L 377.174 10.956 L 378.234 10.956 L 378.234 11.506 ZM 380.801 15.796 C 380.361 15.796 379.977 15.696 379.651 15.496 C 379.331 15.296 379.081 15.016 378.901 14.656 C 378.727 14.303 378.641 13.889 378.641 13.416 L 378.641 13.226 C 378.641 12.773 378.731 12.369 378.911 12.016 C 379.097 11.663 379.347 11.383 379.661 11.176 C 379.967 10.969 380.304 10.866 380.671 10.866 C 381.097 10.866 381.454 10.953 381.741 11.126 C 382.034 11.299 382.254 11.546 382.401 11.866 C 382.547 12.186 382.621 12.559 382.621 12.986 L 382.621 13.526 L 379.531 13.526 L 379.521 13.556 C 379.527 13.856 379.581 14.126 379.681 14.366 C 379.781 14.599 379.927 14.783 380.121 14.916 C 380.307 15.056 380.534 15.126 380.801 15.126 C 381.094 15.126 381.351 15.083 381.571 14.996 C 381.791 14.916 381.984 14.803 382.151 14.656 L 382.481 15.216 C 382.314 15.376 382.091 15.513 381.811 15.626 C 381.531 15.739 381.194 15.796 380.801 15.796 Z M 379.551 12.836 L 379.561 12.856 L 381.751 12.856 L 381.751 12.736 C 381.751 12.509 381.711 12.306 381.631 12.126 C 381.551 11.946 381.431 11.803 381.271 11.696 C 381.111 11.596 380.911 11.546 380.671 11.546 C 380.477 11.546 380.301 11.603 380.141 11.716 C 379.987 11.829 379.857 11.983 379.751 12.176 C 379.651 12.369 379.584 12.589 379.551 12.836 Z" transform="matrix(1, 0, 0, 1, 0, 0)" style="fill: rgb(51, 51, 51); white-space: pre;"/>
      <path d="M 300.414 44.931 L 298.114 44.931 L 298.114 44.381 L 298.834 44.251 L 298.834 38.761 L 298.114 38.631 L 298.114 38.071 L 299.694 38.071 L 299.694 44.251 L 300.414 44.381 L 300.414 44.931 ZM 302.561 45.021 C 302.067 45.021 301.691 44.901 301.431 44.661 C 301.177 44.421 301.051 44.081 301.051 43.641 C 301.051 43.341 301.134 43.078 301.301 42.851 C 301.461 42.624 301.697 42.451 302.011 42.331 C 302.324 42.204 302.701 42.141 303.141 42.141 L 303.991 42.141 L 303.991 41.671 C 303.991 41.384 303.904 41.164 303.731 41.011 C 303.551 40.851 303.304 40.771 302.991 40.771 C 302.791 40.771 302.617 40.794 302.471 40.841 C 302.324 40.888 302.191 40.954 302.071 41.041 L 301.981 41.701 L 301.311 41.701 L 301.311 40.611 C 301.524 40.444 301.774 40.314 302.061 40.221 C 302.341 40.134 302.654 40.091 303.001 40.091 C 303.581 40.091 304.034 40.228 304.361 40.501 C 304.687 40.774 304.851 41.168 304.851 41.681 L 304.851 43.971 C 304.851 44.031 304.854 44.091 304.861 44.151 C 304.861 44.211 304.864 44.271 304.871 44.331 L 305.331 44.381 L 305.331 44.931 L 304.081 44.931 C 304.054 44.804 304.034 44.688 304.021 44.581 C 304.007 44.481 303.997 44.381 303.991 44.281 C 303.824 44.494 303.617 44.671 303.371 44.811 C 303.117 44.951 302.847 45.021 302.561 45.021 Z M 302.691 44.301 C 302.977 44.301 303.241 44.231 303.481 44.091 C 303.714 43.951 303.884 43.784 303.991 43.591 L 303.991 42.731 L 303.111 42.731 C 302.711 42.731 302.411 42.828 302.211 43.021 C 302.011 43.208 301.911 43.421 301.911 43.661 C 301.911 43.868 301.977 44.024 302.111 44.131 C 302.237 44.244 302.431 44.301 302.691 44.301 ZM 306.964 46.851 C 306.897 46.851 306.807 46.844 306.694 46.831 C 306.587 46.811 306.504 46.794 306.444 46.781 L 306.534 46.101 C 306.587 46.108 306.657 46.111 306.744 46.111 C 306.831 46.118 306.891 46.121 306.924 46.121 C 307.111 46.121 307.261 46.051 307.374 45.911 C 307.487 45.771 307.594 45.578 307.694 45.331 L 307.904 44.831 L 306.224 40.801 L 305.714 40.731 L 305.714 40.181 L 307.704 40.181 L 307.704 40.731 L 307.124 40.821 L 308.054 43.201 L 308.284 43.821 L 308.304 43.821 L 309.404 40.821 L 308.794 40.731 L 308.794 40.181 L 310.754 40.181 L 310.754 40.731 L 310.264 40.801 L 308.394 45.661 C 308.301 45.888 308.194 46.091 308.074 46.271 C 307.947 46.451 307.794 46.594 307.614 46.701 C 307.434 46.801 307.217 46.851 306.964 46.851 ZM 313.217 45.021 C 312.777 45.021 312.394 44.921 312.067 44.721 C 311.747 44.521 311.497 44.241 311.317 43.881 C 311.144 43.528 311.057 43.114 311.057 42.641 L 311.057 42.451 C 311.057 41.998 311.147 41.594 311.327 41.241 C 311.514 40.888 311.764 40.608 312.077 40.401 C 312.384 40.194 312.72 40.091 313.087 40.091 C 313.514 40.091 313.87 40.178 314.157 40.351 C 314.45 40.524 314.67 40.771 314.817 41.091 C 314.964 41.411 315.037 41.784 315.037 42.211 L 315.037 42.751 L 311.947 42.751 L 311.937 42.781 C 311.944 43.081 311.997 43.351 312.097 43.591 C 312.197 43.824 312.344 44.008 312.537 44.141 C 312.724 44.281 312.95 44.351 313.217 44.351 C 313.51 44.351 313.767 44.308 313.987 44.221 C 314.207 44.141 314.4 44.028 314.567 43.881 L 314.897 44.441 C 314.73 44.601 314.507 44.738 314.227 44.851 C 313.947 44.964 313.61 45.021 313.217 45.021 Z M 311.967 42.061 L 311.977 42.081 L 314.167 42.081 L 314.167 41.961 C 314.167 41.734 314.127 41.531 314.047 41.351 C 313.967 41.171 313.847 41.028 313.687 40.921 C 313.527 40.821 313.327 40.771 313.087 40.771 C 312.894 40.771 312.717 40.828 312.557 40.941 C 312.404 41.054 312.274 41.208 312.167 41.401 C 312.067 41.594 312 41.814 311.967 42.061 ZM 317.986 44.931 L 315.696 44.931 L 315.696 44.381 L 316.406 44.251 L 316.406 40.861 L 315.696 40.731 L 315.696 40.181 L 317.186 40.181 L 317.256 40.781 L 317.266 40.871 C 317.399 40.624 317.566 40.431 317.766 40.291 C 317.966 40.158 318.193 40.091 318.446 40.091 C 318.533 40.091 318.626 40.098 318.726 40.111 C 318.819 40.131 318.886 40.148 318.926 40.161 L 318.816 40.961 L 318.206 40.931 C 317.979 40.911 317.789 40.961 317.636 41.081 C 317.483 41.201 317.363 41.361 317.276 41.561 L 317.276 44.251 L 317.986 44.381 L 317.986 44.931 Z" transform="matrix(1, 0, 0, 1, 0, 0)" style="fill: rgb(51, 51, 51); white-space: pre;"/>
      <path d="M 14.403 41.864 L 12.103 41.864 L 12.103 41.314 L 12.823 41.184 L 12.823 35.694 L 12.103 35.564 L 12.103 35.004 L 13.683 35.004 L 13.683 41.184 L 14.403 41.314 L 14.403 41.864 ZM 16.55 41.954 C 16.056 41.954 15.68 41.834 15.42 41.594 C 15.166 41.354 15.04 41.014 15.04 40.574 C 15.04 40.274 15.123 40.011 15.29 39.784 C 15.45 39.557 15.686 39.384 16 39.264 C 16.313 39.137 16.69 39.074 17.13 39.074 L 17.98 39.074 L 17.98 38.604 C 17.98 38.317 17.893 38.097 17.72 37.944 C 17.54 37.784 17.293 37.704 16.98 37.704 C 16.78 37.704 16.606 37.727 16.46 37.774 C 16.313 37.821 16.18 37.887 16.06 37.974 L 15.97 38.634 L 15.3 38.634 L 15.3 37.544 C 15.513 37.377 15.763 37.247 16.05 37.154 C 16.33 37.067 16.643 37.024 16.99 37.024 C 17.57 37.024 18.023 37.161 18.35 37.434 C 18.676 37.707 18.84 38.101 18.84 38.614 L 18.84 40.904 C 18.84 40.964 18.843 41.024 18.85 41.084 C 18.85 41.144 18.853 41.204 18.86 41.264 L 19.32 41.314 L 19.32 41.864 L 18.07 41.864 C 18.043 41.737 18.023 41.621 18.01 41.514 C 17.996 41.414 17.986 41.314 17.98 41.214 C 17.813 41.427 17.606 41.604 17.36 41.744 C 17.106 41.884 16.836 41.954 16.55 41.954 Z M 16.68 41.234 C 16.966 41.234 17.23 41.164 17.47 41.024 C 17.703 40.884 17.873 40.717 17.98 40.524 L 17.98 39.664 L 17.1 39.664 C 16.7 39.664 16.4 39.761 16.2 39.954 C 16 40.141 15.9 40.354 15.9 40.594 C 15.9 40.801 15.966 40.957 16.1 41.064 C 16.226 41.177 16.42 41.234 16.68 41.234 ZM 20.953 43.784 C 20.886 43.784 20.796 43.777 20.683 43.764 C 20.576 43.744 20.493 43.727 20.433 43.714 L 20.523 43.034 C 20.576 43.041 20.646 43.044 20.733 43.044 C 20.82 43.051 20.88 43.054 20.913 43.054 C 21.1 43.054 21.25 42.984 21.363 42.844 C 21.476 42.704 21.583 42.511 21.683 42.264 L 21.893 41.764 L 20.213 37.734 L 19.703 37.664 L 19.703 37.114 L 21.693 37.114 L 21.693 37.664 L 21.113 37.754 L 22.043 40.134 L 22.273 40.754 L 22.293 40.754 L 23.393 37.754 L 22.783 37.664 L 22.783 37.114 L 24.743 37.114 L 24.743 37.664 L 24.253 37.734 L 22.383 42.594 C 22.29 42.821 22.183 43.024 22.063 43.204 C 21.936 43.384 21.783 43.527 21.603 43.634 C 21.423 43.734 21.206 43.784 20.953 43.784 ZM 27.206 41.954 C 26.766 41.954 26.383 41.854 26.056 41.654 C 25.736 41.454 25.486 41.174 25.306 40.814 C 25.133 40.461 25.046 40.047 25.046 39.574 L 25.046 39.384 C 25.046 38.931 25.136 38.527 25.316 38.174 C 25.503 37.821 25.753 37.541 26.066 37.334 C 26.373 37.127 26.709 37.024 27.076 37.024 C 27.503 37.024 27.859 37.111 28.146 37.284 C 28.439 37.457 28.659 37.704 28.806 38.024 C 28.953 38.344 29.026 38.717 29.026 39.144 L 29.026 39.684 L 25.936 39.684 L 25.926 39.714 C 25.933 40.014 25.986 40.284 26.086 40.524 C 26.186 40.757 26.333 40.941 26.526 41.074 C 26.713 41.214 26.939 41.284 27.206 41.284 C 27.499 41.284 27.756 41.241 27.976 41.154 C 28.196 41.074 28.389 40.961 28.556 40.814 L 28.886 41.374 C 28.719 41.534 28.496 41.671 28.216 41.784 C 27.936 41.897 27.599 41.954 27.206 41.954 Z M 25.956 38.994 L 25.966 39.014 L 28.156 39.014 L 28.156 38.894 C 28.156 38.667 28.116 38.464 28.036 38.284 C 27.956 38.104 27.836 37.961 27.676 37.854 C 27.516 37.754 27.316 37.704 27.076 37.704 C 26.883 37.704 26.706 37.761 26.546 37.874 C 26.393 37.987 26.263 38.141 26.156 38.334 C 26.056 38.527 25.989 38.747 25.956 38.994 ZM 31.975 41.864 L 29.685 41.864 L 29.685 41.314 L 30.395 41.184 L 30.395 37.794 L 29.685 37.664 L 29.685 37.114 L 31.175 37.114 L 31.245 37.714 L 31.255 37.804 C 31.388 37.557 31.555 37.364 31.755 37.224 C 31.955 37.091 32.182 37.024 32.435 37.024 C 32.522 37.024 32.615 37.031 32.715 37.044 C 32.808 37.064 32.875 37.081 32.915 37.094 L 32.805 37.894 L 32.195 37.864 C 31.968 37.844 31.778 37.894 31.625 38.014 C 31.472 38.134 31.352 38.294 31.265 38.494 L 31.265 41.184 L 31.975 41.314 L 31.975 41.864 Z" transform="matrix(1, 0, 0, 1, 0, 0)" style="fill: rgb(51, 51, 51); white-space: pre;"/>
      <path d="M 25.93 27.431 L 23.63 27.431 L 23.63 26.881 L 24.35 26.751 L 24.35 21.261 L 23.63 21.131 L 23.63 20.571 L 25.21 20.571 L 25.21 26.751 L 25.93 26.881 L 25.93 27.431 ZM 28.077 27.521 C 27.583 27.521 27.207 27.401 26.947 27.161 C 26.693 26.921 26.567 26.581 26.567 26.141 C 26.567 25.841 26.65 25.578 26.817 25.351 C 26.977 25.124 27.213 24.951 27.527 24.831 C 27.84 24.704 28.217 24.641 28.657 24.641 L 29.507 24.641 L 29.507 24.171 C 29.507 23.884 29.42 23.664 29.247 23.511 C 29.067 23.351 28.82 23.271 28.507 23.271 C 28.307 23.271 28.133 23.294 27.987 23.341 C 27.84 23.388 27.707 23.454 27.587 23.541 L 27.497 24.201 L 26.827 24.201 L 26.827 23.111 C 27.04 22.944 27.29 22.814 27.577 22.721 C 27.857 22.634 28.17 22.591 28.517 22.591 C 29.097 22.591 29.55 22.728 29.877 23.001 C 30.203 23.274 30.367 23.668 30.367 24.181 L 30.367 26.471 C 30.367 26.531 30.37 26.591 30.377 26.651 C 30.377 26.711 30.38 26.771 30.387 26.831 L 30.847 26.881 L 30.847 27.431 L 29.597 27.431 C 29.57 27.304 29.55 27.188 29.537 27.081 C 29.523 26.981 29.513 26.881 29.507 26.781 C 29.34 26.994 29.133 27.171 28.887 27.311 C 28.633 27.451 28.363 27.521 28.077 27.521 Z M 28.207 26.801 C 28.493 26.801 28.757 26.731 28.997 26.591 C 29.23 26.451 29.4 26.284 29.507 26.091 L 29.507 25.231 L 28.627 25.231 C 28.227 25.231 27.927 25.328 27.727 25.521 C 27.527 25.708 27.427 25.921 27.427 26.161 C 27.427 26.368 27.493 26.524 27.627 26.631 C 27.753 26.744 27.947 26.801 28.207 26.801 ZM 32.48 29.351 C 32.413 29.351 32.323 29.344 32.21 29.331 C 32.103 29.311 32.02 29.294 31.96 29.281 L 32.05 28.601 C 32.103 28.608 32.173 28.611 32.26 28.611 C 32.347 28.618 32.407 28.621 32.44 28.621 C 32.627 28.621 32.777 28.551 32.89 28.411 C 33.003 28.271 33.11 28.078 33.21 27.831 L 33.42 27.331 L 31.74 23.301 L 31.23 23.231 L 31.23 22.681 L 33.22 22.681 L 33.22 23.231 L 32.64 23.321 L 33.57 25.701 L 33.8 26.321 L 33.82 26.321 L 34.92 23.321 L 34.31 23.231 L 34.31 22.681 L 36.27 22.681 L 36.27 23.231 L 35.78 23.301 L 33.91 28.161 C 33.817 28.388 33.71 28.591 33.59 28.771 C 33.463 28.951 33.31 29.094 33.13 29.201 C 32.95 29.301 32.733 29.351 32.48 29.351 ZM 38.733 27.521 C 38.293 27.521 37.91 27.421 37.583 27.221 C 37.263 27.021 37.013 26.741 36.833 26.381 C 36.66 26.028 36.573 25.614 36.573 25.141 L 36.573 24.951 C 36.573 24.498 36.663 24.094 36.843 23.741 C 37.03 23.388 37.28 23.108 37.593 22.901 C 37.9 22.694 38.236 22.591 38.603 22.591 C 39.03 22.591 39.386 22.678 39.673 22.851 C 39.966 23.024 40.186 23.271 40.333 23.591 C 40.48 23.911 40.553 24.284 40.553 24.711 L 40.553 25.251 L 37.463 25.251 L 37.453 25.281 C 37.46 25.581 37.513 25.851 37.613 26.091 C 37.713 26.324 37.86 26.508 38.053 26.641 C 38.24 26.781 38.466 26.851 38.733 26.851 C 39.026 26.851 39.283 26.808 39.503 26.721 C 39.723 26.641 39.916 26.528 40.083 26.381 L 40.413 26.941 C 40.246 27.101 40.023 27.238 39.743 27.351 C 39.463 27.464 39.126 27.521 38.733 27.521 Z M 37.483 24.561 L 37.493 24.581 L 39.683 24.581 L 39.683 24.461 C 39.683 24.234 39.643 24.031 39.563 23.851 C 39.483 23.671 39.363 23.528 39.203 23.421 C 39.043 23.321 38.843 23.271 38.603 23.271 C 38.41 23.271 38.233 23.328 38.073 23.441 C 37.92 23.554 37.79 23.708 37.683 23.901 C 37.583 24.094 37.516 24.314 37.483 24.561 ZM 43.502 27.431 L 41.212 27.431 L 41.212 26.881 L 41.922 26.751 L 41.922 23.361 L 41.212 23.231 L 41.212 22.681 L 42.702 22.681 L 42.772 23.281 L 42.782 23.371 C 42.915 23.124 43.082 22.931 43.282 22.791 C 43.482 22.658 43.709 22.591 43.962 22.591 C 44.049 22.591 44.142 22.598 44.242 22.611 C 44.335 22.631 44.402 22.648 44.442 22.661 L 44.332 23.461 L 43.722 23.431 C 43.495 23.411 43.305 23.461 43.152 23.581 C 42.999 23.701 42.879 23.861 42.792 24.061 L 42.792 26.751 L 43.502 26.881 L 43.502 27.431 Z" transform="matrix(1, 0, 0, 1, 0, 0)" style="fill: rgb(51, 51, 51); white-space: pre;"/>
      <path d="M 38.637 15.554 L 36.337 15.554 L 36.337 15.004 L 37.057 14.874 L 37.057 9.384 L 36.337 9.254 L 36.337 8.694 L 37.917 8.694 L 37.917 14.874 L 38.637 15.004 L 38.637 15.554 ZM 40.784 15.644 C 40.29 15.644 39.914 15.524 39.654 15.284 C 39.4 15.044 39.274 14.704 39.274 14.264 C 39.274 13.964 39.357 13.701 39.524 13.474 C 39.684 13.247 39.92 13.074 40.234 12.954 C 40.547 12.827 40.924 12.764 41.364 12.764 L 42.214 12.764 L 42.214 12.294 C 42.214 12.007 42.127 11.787 41.954 11.634 C 41.774 11.474 41.527 11.394 41.214 11.394 C 41.014 11.394 40.84 11.417 40.694 11.464 C 40.547 11.511 40.414 11.577 40.294 11.664 L 40.204 12.324 L 39.534 12.324 L 39.534 11.234 C 39.747 11.067 39.997 10.937 40.284 10.844 C 40.564 10.757 40.877 10.714 41.224 10.714 C 41.804 10.714 42.257 10.851 42.584 11.124 C 42.91 11.397 43.074 11.791 43.074 12.304 L 43.074 14.594 C 43.074 14.654 43.077 14.714 43.084 14.774 C 43.084 14.834 43.087 14.894 43.094 14.954 L 43.554 15.004 L 43.554 15.554 L 42.304 15.554 C 42.277 15.427 42.257 15.311 42.244 15.204 C 42.23 15.104 42.22 15.004 42.214 14.904 C 42.047 15.117 41.84 15.294 41.594 15.434 C 41.34 15.574 41.07 15.644 40.784 15.644 Z M 40.914 14.924 C 41.2 14.924 41.464 14.854 41.704 14.714 C 41.937 14.574 42.107 14.407 42.214 14.214 L 42.214 13.354 L 41.334 13.354 C 40.934 13.354 40.634 13.451 40.434 13.644 C 40.234 13.831 40.134 14.044 40.134 14.284 C 40.134 14.491 40.2 14.647 40.334 14.754 C 40.46 14.867 40.654 14.924 40.914 14.924 ZM 45.187 17.474 C 45.12 17.474 45.03 17.467 44.917 17.454 C 44.81 17.434 44.727 17.417 44.667 17.404 L 44.757 16.724 C 44.81 16.731 44.88 16.734 44.967 16.734 C 45.054 16.741 45.114 16.744 45.147 16.744 C 45.334 16.744 45.484 16.674 45.597 16.534 C 45.71 16.394 45.817 16.201 45.917 15.954 L 46.127 15.454 L 44.447 11.424 L 43.937 11.354 L 43.937 10.804 L 45.927 10.804 L 45.927 11.354 L 45.347 11.444 L 46.277 13.824 L 46.507 14.444 L 46.527 14.444 L 47.627 11.444 L 47.017 11.354 L 47.017 10.804 L 48.977 10.804 L 48.977 11.354 L 48.487 11.424 L 46.617 16.284 C 46.524 16.511 46.417 16.714 46.297 16.894 C 46.17 17.074 46.017 17.217 45.837 17.324 C 45.657 17.424 45.44 17.474 45.187 17.474 ZM 51.44 15.644 C 51 15.644 50.617 15.544 50.29 15.344 C 49.97 15.144 49.72 14.864 49.54 14.504 C 49.367 14.151 49.28 13.737 49.28 13.264 L 49.28 13.074 C 49.28 12.621 49.37 12.217 49.55 11.864 C 49.737 11.511 49.987 11.231 50.3 11.024 C 50.607 10.817 50.943 10.714 51.31 10.714 C 51.737 10.714 52.093 10.801 52.38 10.974 C 52.673 11.147 52.893 11.394 53.04 11.714 C 53.187 12.034 53.26 12.407 53.26 12.834 L 53.26 13.374 L 50.17 13.374 L 50.16 13.404 C 50.167 13.704 50.22 13.974 50.32 14.214 C 50.42 14.447 50.567 14.631 50.76 14.764 C 50.947 14.904 51.173 14.974 51.44 14.974 C 51.733 14.974 51.99 14.931 52.21 14.844 C 52.43 14.764 52.623 14.651 52.79 14.504 L 53.12 15.064 C 52.953 15.224 52.73 15.361 52.45 15.474 C 52.17 15.587 51.833 15.644 51.44 15.644 Z M 50.19 12.684 L 50.2 12.704 L 52.39 12.704 L 52.39 12.584 C 52.39 12.357 52.35 12.154 52.27 11.974 C 52.19 11.794 52.07 11.651 51.91 11.544 C 51.75 11.444 51.55 11.394 51.31 11.394 C 51.117 11.394 50.94 11.451 50.78 11.564 C 50.627 11.677 50.497 11.831 50.39 12.024 C 50.29 12.217 50.223 12.437 50.19 12.684 ZM 56.209 15.554 L 53.919 15.554 L 53.919 15.004 L 54.629 14.874 L 54.629 11.484 L 53.919 11.354 L 53.919 10.804 L 55.409 10.804 L 55.479 11.404 L 55.489 11.494 C 55.622 11.247 55.789 11.054 55.989 10.914 C 56.189 10.781 56.416 10.714 56.669 10.714 C 56.756 10.714 56.849 10.721 56.949 10.734 C 57.042 10.754 57.109 10.771 57.149 10.784 L 57.039 11.584 L 56.429 11.554 C 56.202 11.534 56.012 11.584 55.859 11.704 C 55.706 11.824 55.586 11.984 55.499 12.184 L 55.499 14.874 L 56.209 15.004 L 56.209 15.554 Z" transform="matrix(1, 0, 0, 1, 0, 0)" style="fill: rgb(51, 51, 51); white-space: pre;"/>
      <path d="M 250.048 68.705 C 249.608 68.705 249.231 68.602 248.918 68.395 C 248.598 68.188 248.351 67.905 248.178 67.545 C 248.005 67.178 247.918 66.762 247.918 66.295 L 247.918 66.195 C 247.918 65.728 248.005 65.312 248.178 64.945 C 248.351 64.578 248.598 64.292 248.918 64.085 C 249.231 63.878 249.608 63.775 250.048 63.775 C 250.481 63.775 250.858 63.878 251.178 64.085 C 251.498 64.292 251.745 64.578 251.918 64.945 C 252.091 65.305 252.178 65.722 252.178 66.195 L 252.178 66.295 C 252.178 66.762 252.091 67.178 251.918 67.545 C 251.745 67.912 251.498 68.195 251.178 68.395 C 250.865 68.602 250.488 68.705 250.048 68.705 Z M 250.048 68.035 C 250.328 68.035 250.561 67.958 250.748 67.805 C 250.935 67.652 251.075 67.445 251.168 67.185 C 251.261 66.925 251.308 66.628 251.308 66.295 L 251.308 66.195 C 251.308 65.862 251.261 65.562 251.168 65.295 C 251.075 65.035 250.931 64.828 250.738 64.675 C 250.551 64.528 250.321 64.455 250.048 64.455 C 249.768 64.455 249.535 64.528 249.348 64.675 C 249.161 64.828 249.021 65.035 248.928 65.295 C 248.835 65.562 248.788 65.862 248.788 66.195 L 248.788 66.295 C 248.788 66.628 248.835 66.925 248.928 67.185 C 249.021 67.445 249.161 67.652 249.348 67.805 C 249.541 67.958 249.775 68.035 250.048 68.035 ZM 255.002 70.445 L 252.702 70.445 L 252.702 69.885 L 253.382 69.765 L 253.382 64.545 L 252.662 64.415 L 252.662 63.865 L 254.122 63.865 L 254.202 64.445 C 254.356 64.225 254.549 64.058 254.782 63.945 C 255.009 63.832 255.269 63.775 255.562 63.775 C 255.956 63.775 256.292 63.882 256.572 64.095 C 256.852 64.302 257.066 64.598 257.212 64.985 C 257.359 65.365 257.432 65.812 257.432 66.325 L 257.432 66.415 C 257.432 66.875 257.359 67.275 257.212 67.615 C 257.059 67.962 256.846 68.228 256.572 68.415 C 256.299 68.608 255.969 68.705 255.582 68.705 C 255.289 68.705 255.032 68.658 254.812 68.565 C 254.586 68.465 254.396 68.318 254.242 68.125 L 254.242 69.765 L 255.002 69.885 L 255.002 70.445 Z M 255.312 68.035 C 255.719 68.035 256.029 67.885 256.242 67.585 C 256.456 67.285 256.562 66.895 256.562 66.415 L 256.562 66.325 C 256.562 65.965 256.516 65.645 256.422 65.365 C 256.329 65.085 256.189 64.868 256.002 64.715 C 255.816 64.555 255.582 64.475 255.302 64.475 C 255.056 64.475 254.846 64.532 254.672 64.645 C 254.492 64.752 254.349 64.902 254.242 65.095 L 254.242 67.415 C 254.349 67.608 254.492 67.762 254.672 67.875 C 254.846 67.982 255.059 68.035 255.312 68.035 ZM 260.433 68.705 C 259.993 68.705 259.609 68.605 259.283 68.405 C 258.963 68.205 258.713 67.925 258.533 67.565 C 258.359 67.212 258.273 66.798 258.273 66.325 L 258.273 66.135 C 258.273 65.682 258.363 65.278 258.543 64.925 C 258.729 64.572 258.979 64.292 259.293 64.085 C 259.599 63.878 259.936 63.775 260.303 63.775 C 260.729 63.775 261.086 63.862 261.373 64.035 C 261.666 64.208 261.886 64.455 262.033 64.775 C 262.179 65.095 262.253 65.468 262.253 65.895 L 262.253 66.435 L 259.163 66.435 L 259.153 66.465 C 259.159 66.765 259.213 67.035 259.313 67.275 C 259.413 67.508 259.559 67.692 259.753 67.825 C 259.939 67.965 260.166 68.035 260.433 68.035 C 260.726 68.035 260.983 67.992 261.203 67.905 C 261.423 67.825 261.616 67.712 261.783 67.565 L 262.113 68.125 C 261.946 68.285 261.723 68.422 261.443 68.535 C 261.163 68.648 260.826 68.705 260.433 68.705 Z M 259.183 65.745 L 259.193 65.765 L 261.383 65.765 L 261.383 65.645 C 261.383 65.418 261.343 65.215 261.263 65.035 C 261.183 64.855 261.063 64.712 260.903 64.605 C 260.743 64.505 260.543 64.455 260.303 64.455 C 260.109 64.455 259.933 64.512 259.773 64.625 C 259.619 64.738 259.489 64.892 259.383 65.085 C 259.283 65.278 259.216 65.498 259.183 65.745 ZM 265.201 68.615 L 262.911 68.615 L 262.911 68.065 L 263.621 67.935 L 263.621 64.545 L 262.911 64.415 L 262.911 63.865 L 264.401 63.865 L 264.471 64.465 L 264.481 64.555 C 264.615 64.308 264.781 64.115 264.981 63.975 C 265.181 63.842 265.408 63.775 265.661 63.775 C 265.748 63.775 265.841 63.782 265.941 63.795 C 266.035 63.815 266.101 63.832 266.141 63.845 L 266.031 64.645 L 265.421 64.615 C 265.195 64.595 265.005 64.645 264.851 64.765 C 264.698 64.885 264.578 65.045 264.491 65.245 L 264.491 67.935 L 265.201 68.065 L 265.201 68.615 ZM 268.2 68.705 C 267.707 68.705 267.33 68.585 267.07 68.345 C 266.817 68.105 266.69 67.765 266.69 67.325 C 266.69 67.025 266.774 66.762 266.94 66.535 C 267.1 66.308 267.337 66.135 267.65 66.015 C 267.964 65.888 268.34 65.825 268.78 65.825 L 269.63 65.825 L 269.63 65.355 C 269.63 65.068 269.544 64.848 269.37 64.695 C 269.19 64.535 268.944 64.455 268.63 64.455 C 268.43 64.455 268.257 64.478 268.11 64.525 C 267.964 64.572 267.83 64.638 267.71 64.725 L 267.62 65.385 L 266.95 65.385 L 266.95 64.295 C 267.164 64.128 267.414 63.998 267.7 63.905 C 267.98 63.818 268.294 63.775 268.64 63.775 C 269.22 63.775 269.674 63.912 270 64.185 C 270.327 64.458 270.49 64.852 270.49 65.365 L 270.49 67.655 C 270.49 67.715 270.494 67.775 270.5 67.835 C 270.5 67.895 270.504 67.955 270.51 68.015 L 270.97 68.065 L 270.97 68.615 L 269.72 68.615 C 269.694 68.488 269.674 68.372 269.66 68.265 C 269.647 68.165 269.637 68.065 269.63 67.965 C 269.464 68.178 269.257 68.355 269.01 68.495 C 268.757 68.635 268.487 68.705 268.2 68.705 Z M 268.33 67.985 C 268.617 67.985 268.88 67.915 269.12 67.775 C 269.354 67.635 269.524 67.468 269.63 67.275 L 269.63 66.415 L 268.75 66.415 C 268.35 66.415 268.05 66.512 267.85 66.705 C 267.65 66.892 267.55 67.105 267.55 67.345 C 267.55 67.552 267.617 67.708 267.75 67.815 C 267.877 67.928 268.07 67.985 268.33 67.985 ZM 273.31 68.685 C 272.963 68.685 272.686 68.582 272.48 68.375 C 272.273 68.175 272.17 67.845 272.17 67.385 L 272.17 64.505 L 271.42 64.505 L 271.42 63.865 L 272.17 63.865 L 272.17 62.715 L 273.03 62.715 L 273.03 63.865 L 274.07 63.865 L 274.07 64.505 L 273.03 64.505 L 273.03 67.385 C 273.03 67.618 273.076 67.788 273.17 67.895 C 273.263 68.002 273.383 68.055 273.53 68.055 C 273.636 68.055 273.753 68.045 273.88 68.025 C 274.006 68.005 274.103 67.988 274.17 67.975 L 274.29 68.545 C 274.163 68.585 274.01 68.618 273.83 68.645 C 273.643 68.672 273.47 68.685 273.31 68.685 ZM 277.104 68.615 L 274.804 68.615 L 274.804 68.065 L 275.524 67.935 L 275.524 64.545 L 274.804 64.415 L 274.804 63.865 L 276.394 63.865 L 276.394 67.935 L 277.104 68.065 L 277.104 68.615 Z M 276.394 62.685 L 275.484 62.685 L 275.484 61.755 L 276.394 61.755 L 276.394 62.685 ZM 279.847 68.705 C 279.407 68.705 279.03 68.602 278.717 68.395 C 278.397 68.188 278.15 67.905 277.977 67.545 C 277.803 67.178 277.717 66.762 277.717 66.295 L 277.717 66.195 C 277.717 65.728 277.803 65.312 277.977 64.945 C 278.15 64.578 278.397 64.292 278.717 64.085 C 279.03 63.878 279.407 63.775 279.847 63.775 C 280.28 63.775 280.657 63.878 280.977 64.085 C 281.297 64.292 281.543 64.578 281.717 64.945 C 281.89 65.305 281.977 65.722 281.977 66.195 L 281.977 66.295 C 281.977 66.762 281.89 67.178 281.717 67.545 C 281.543 67.912 281.297 68.195 280.977 68.395 C 280.663 68.602 280.287 68.705 279.847 68.705 Z M 279.847 68.035 C 280.127 68.035 280.36 67.958 280.547 67.805 C 280.733 67.652 280.873 67.445 280.967 67.185 C 281.06 66.925 281.107 66.628 281.107 66.295 L 281.107 66.195 C 281.107 65.862 281.06 65.562 280.967 65.295 C 280.873 65.035 280.73 64.828 280.537 64.675 C 280.35 64.528 280.12 64.455 279.847 64.455 C 279.567 64.455 279.333 64.528 279.147 64.675 C 278.96 64.828 278.82 65.035 278.727 65.295 C 278.633 65.562 278.587 65.862 278.587 66.195 L 278.587 66.295 C 278.587 66.628 278.633 66.925 278.727 67.185 C 278.82 67.445 278.96 67.652 279.147 67.805 C 279.34 67.958 279.573 68.035 279.847 68.035 ZM 284.931 68.615 L 282.641 68.615 L 282.641 68.065 L 283.351 67.935 L 283.351 64.545 L 282.641 64.415 L 282.641 63.865 L 284.121 63.865 L 284.191 64.565 C 284.344 64.312 284.541 64.118 284.781 63.985 C 285.021 63.845 285.294 63.775 285.601 63.775 C 286.114 63.775 286.511 63.925 286.791 64.225 C 287.071 64.525 287.211 64.988 287.211 65.615 L 287.211 67.935 L 287.931 68.065 L 287.931 68.615 L 285.631 68.615 L 285.631 68.065 L 286.341 67.935 L 286.341 65.635 C 286.341 65.215 286.261 64.915 286.101 64.735 C 285.934 64.562 285.681 64.475 285.341 64.475 C 285.088 64.475 284.868 64.535 284.681 64.655 C 284.488 64.775 284.334 64.938 284.221 65.145 L 284.221 67.935 L 284.931 68.065 L 284.931 68.615 Z" transform="matrix(1, 0, 0, 1, 0, 0)" style="fill: rgb(51, 51, 51); white-space: pre;"/>
      <path d="M 494.47 108.196 C 494.03 108.196 493.653 108.093 493.34 107.886 C 493.02 107.679 492.773 107.396 492.6 107.036 C 492.427 106.669 492.34 106.253 492.34 105.786 L 492.34 105.686 C 492.34 105.219 492.427 104.803 492.6 104.436 C 492.773 104.069 493.02 103.783 493.34 103.576 C 493.653 103.369 494.03 103.266 494.47 103.266 C 494.903 103.266 495.28 103.369 495.6 103.576 C 495.92 103.783 496.167 104.069 496.34 104.436 C 496.513 104.796 496.6 105.213 496.6 105.686 L 496.6 105.786 C 496.6 106.253 496.513 106.669 496.34 107.036 C 496.167 107.403 495.92 107.686 495.6 107.886 C 495.287 108.093 494.91 108.196 494.47 108.196 Z M 494.47 107.526 C 494.75 107.526 494.983 107.449 495.17 107.296 C 495.357 107.143 495.497 106.936 495.59 106.676 C 495.683 106.416 495.73 106.119 495.73 105.786 L 495.73 105.686 C 495.73 105.353 495.683 105.053 495.59 104.786 C 495.497 104.526 495.353 104.319 495.16 104.166 C 494.973 104.019 494.743 103.946 494.47 103.946 C 494.19 103.946 493.957 104.019 493.77 104.166 C 493.583 104.319 493.443 104.526 493.35 104.786 C 493.257 105.053 493.21 105.353 493.21 105.686 L 493.21 105.786 C 493.21 106.119 493.257 106.416 493.35 106.676 C 493.443 106.936 493.583 107.143 493.77 107.296 C 493.963 107.449 494.197 107.526 494.47 107.526 ZM 499.424 109.936 L 497.124 109.936 L 497.124 109.376 L 497.804 109.256 L 497.804 104.036 L 497.084 103.906 L 497.084 103.356 L 498.544 103.356 L 498.624 103.936 C 498.778 103.716 498.971 103.549 499.204 103.436 C 499.431 103.323 499.691 103.266 499.984 103.266 C 500.378 103.266 500.714 103.373 500.994 103.586 C 501.274 103.793 501.488 104.089 501.634 104.476 C 501.781 104.856 501.854 105.303 501.854 105.816 L 501.854 105.906 C 501.854 106.366 501.781 106.766 501.634 107.106 C 501.481 107.453 501.268 107.719 500.994 107.906 C 500.721 108.099 500.391 108.196 500.004 108.196 C 499.711 108.196 499.454 108.149 499.234 108.056 C 499.008 107.956 498.818 107.809 498.664 107.616 L 498.664 109.256 L 499.424 109.376 L 499.424 109.936 Z M 499.734 107.526 C 500.141 107.526 500.451 107.376 500.664 107.076 C 500.878 106.776 500.984 106.386 500.984 105.906 L 500.984 105.816 C 500.984 105.456 500.938 105.136 500.844 104.856 C 500.751 104.576 500.611 104.359 500.424 104.206 C 500.238 104.046 500.004 103.966 499.724 103.966 C 499.478 103.966 499.268 104.023 499.094 104.136 C 498.914 104.243 498.771 104.393 498.664 104.586 L 498.664 106.906 C 498.771 107.099 498.914 107.253 499.094 107.366 C 499.268 107.473 499.481 107.526 499.734 107.526 ZM 504.855 108.196 C 504.415 108.196 504.031 108.096 503.705 107.896 C 503.385 107.696 503.135 107.416 502.955 107.056 C 502.781 106.703 502.695 106.289 502.695 105.816 L 502.695 105.626 C 502.695 105.173 502.785 104.769 502.965 104.416 C 503.151 104.063 503.401 103.783 503.715 103.576 C 504.021 103.369 504.358 103.266 504.725 103.266 C 505.151 103.266 505.508 103.353 505.795 103.526 C 506.088 103.699 506.308 103.946 506.455 104.266 C 506.601 104.586 506.675 104.959 506.675 105.386 L 506.675 105.926 L 503.585 105.926 L 503.575 105.956 C 503.581 106.256 503.635 106.526 503.735 106.766 C 503.835 106.999 503.981 107.183 504.175 107.316 C 504.361 107.456 504.588 107.526 504.855 107.526 C 505.148 107.526 505.405 107.483 505.625 107.396 C 505.845 107.316 506.038 107.203 506.205 107.056 L 506.535 107.616 C 506.368 107.776 506.145 107.913 505.865 108.026 C 505.585 108.139 505.248 108.196 504.855 108.196 Z M 503.605 105.236 L 503.615 105.256 L 505.805 105.256 L 505.805 105.136 C 505.805 104.909 505.765 104.706 505.685 104.526 C 505.605 104.346 505.485 104.203 505.325 104.096 C 505.165 103.996 504.965 103.946 504.725 103.946 C 504.531 103.946 504.355 104.003 504.195 104.116 C 504.041 104.229 503.911 104.383 503.805 104.576 C 503.705 104.769 503.638 104.989 503.605 105.236 ZM 509.623 108.106 L 507.333 108.106 L 507.333 107.556 L 508.043 107.426 L 508.043 104.036 L 507.333 103.906 L 507.333 103.356 L 508.823 103.356 L 508.893 103.956 L 508.903 104.046 C 509.037 103.799 509.203 103.606 509.403 103.466 C 509.603 103.333 509.83 103.266 510.083 103.266 C 510.17 103.266 510.263 103.273 510.363 103.286 C 510.457 103.306 510.523 103.323 510.563 103.336 L 510.453 104.136 L 509.843 104.106 C 509.617 104.086 509.427 104.136 509.273 104.256 C 509.12 104.376 509 104.536 508.913 104.736 L 508.913 107.426 L 509.623 107.556 L 509.623 108.106 ZM 512.622 108.196 C 512.129 108.196 511.752 108.076 511.492 107.836 C 511.239 107.596 511.112 107.256 511.112 106.816 C 511.112 106.516 511.196 106.253 511.362 106.026 C 511.522 105.799 511.759 105.626 512.072 105.506 C 512.386 105.379 512.762 105.316 513.202 105.316 L 514.052 105.316 L 514.052 104.846 C 514.052 104.559 513.966 104.339 513.792 104.186 C 513.612 104.026 513.366 103.946 513.052 103.946 C 512.852 103.946 512.679 103.969 512.532 104.016 C 512.386 104.063 512.252 104.129 512.132 104.216 L 512.042 104.876 L 511.372 104.876 L 511.372 103.786 C 511.586 103.619 511.836 103.489 512.122 103.396 C 512.402 103.309 512.716 103.266 513.062 103.266 C 513.642 103.266 514.096 103.403 514.422 103.676 C 514.749 103.949 514.912 104.343 514.912 104.856 L 514.912 107.146 C 514.912 107.206 514.916 107.266 514.922 107.326 C 514.922 107.386 514.926 107.446 514.932 107.506 L 515.392 107.556 L 515.392 108.106 L 514.142 108.106 C 514.116 107.979 514.096 107.863 514.082 107.756 C 514.069 107.656 514.059 107.556 514.052 107.456 C 513.886 107.669 513.679 107.846 513.432 107.986 C 513.179 108.126 512.909 108.196 512.622 108.196 Z M 512.752 107.476 C 513.039 107.476 513.302 107.406 513.542 107.266 C 513.776 107.126 513.946 106.959 514.052 106.766 L 514.052 105.906 L 513.172 105.906 C 512.772 105.906 512.472 106.003 512.272 106.196 C 512.072 106.383 511.972 106.596 511.972 106.836 C 511.972 107.043 512.039 107.199 512.172 107.306 C 512.299 107.419 512.492 107.476 512.752 107.476 ZM 517.732 108.176 C 517.385 108.176 517.108 108.073 516.902 107.866 C 516.695 107.666 516.592 107.336 516.592 106.876 L 516.592 103.996 L 515.842 103.996 L 515.842 103.356 L 516.592 103.356 L 516.592 102.206 L 517.452 102.206 L 517.452 103.356 L 518.492 103.356 L 518.492 103.996 L 517.452 103.996 L 517.452 106.876 C 517.452 107.109 517.498 107.279 517.592 107.386 C 517.685 107.493 517.805 107.546 517.952 107.546 C 518.058 107.546 518.175 107.536 518.302 107.516 C 518.428 107.496 518.525 107.479 518.592 107.466 L 518.712 108.036 C 518.585 108.076 518.432 108.109 518.252 108.136 C 518.065 108.163 517.892 108.176 517.732 108.176 ZM 521.526 108.106 L 519.226 108.106 L 519.226 107.556 L 519.946 107.426 L 519.946 104.036 L 519.226 103.906 L 519.226 103.356 L 520.816 103.356 L 520.816 107.426 L 521.526 107.556 L 521.526 108.106 Z M 520.816 102.176 L 519.906 102.176 L 519.906 101.246 L 520.816 101.246 L 520.816 102.176 ZM 524.269 108.196 C 523.829 108.196 523.452 108.093 523.139 107.886 C 522.819 107.679 522.572 107.396 522.399 107.036 C 522.225 106.669 522.139 106.253 522.139 105.786 L 522.139 105.686 C 522.139 105.219 522.225 104.803 522.399 104.436 C 522.572 104.069 522.819 103.783 523.139 103.576 C 523.452 103.369 523.829 103.266 524.269 103.266 C 524.702 103.266 525.079 103.369 525.399 103.576 C 525.719 103.783 525.965 104.069 526.139 104.436 C 526.312 104.796 526.399 105.213 526.399 105.686 L 526.399 105.786 C 526.399 106.253 526.312 106.669 526.139 107.036 C 525.965 107.403 525.719 107.686 525.399 107.886 C 525.085 108.093 524.709 108.196 524.269 108.196 Z M 524.269 107.526 C 524.549 107.526 524.782 107.449 524.969 107.296 C 525.155 107.143 525.295 106.936 525.389 106.676 C 525.482 106.416 525.529 106.119 525.529 105.786 L 525.529 105.686 C 525.529 105.353 525.482 105.053 525.389 104.786 C 525.295 104.526 525.152 104.319 524.959 104.166 C 524.772 104.019 524.542 103.946 524.269 103.946 C 523.989 103.946 523.755 104.019 523.569 104.166 C 523.382 104.319 523.242 104.526 523.149 104.786 C 523.055 105.053 523.009 105.353 523.009 105.686 L 523.009 105.786 C 523.009 106.119 523.055 106.416 523.149 106.676 C 523.242 106.936 523.382 107.143 523.569 107.296 C 523.762 107.449 523.995 107.526 524.269 107.526 ZM 529.353 108.106 L 527.063 108.106 L 527.063 107.556 L 527.773 107.426 L 527.773 104.036 L 527.063 103.906 L 527.063 103.356 L 528.543 103.356 L 528.613 104.056 C 528.766 103.803 528.963 103.609 529.203 103.476 C 529.443 103.336 529.716 103.266 530.023 103.266 C 530.536 103.266 530.933 103.416 531.213 103.716 C 531.493 104.016 531.633 104.479 531.633 105.106 L 531.633 107.426 L 532.353 107.556 L 532.353 108.106 L 530.053 108.106 L 530.053 107.556 L 530.763 107.426 L 530.763 105.126 C 530.763 104.706 530.683 104.406 530.523 104.226 C 530.356 104.053 530.103 103.966 529.763 103.966 C 529.51 103.966 529.29 104.026 529.103 104.146 C 528.91 104.266 528.756 104.429 528.643 104.636 L 528.643 107.426 L 529.353 107.556 L 529.353 108.106 Z" transform="matrix(1, 0, 0, 1, 0, 0)" style="fill: rgb(51, 51, 51); white-space: pre;"/>
      <path d="M 556.203 43.963 C 555.776 43.963 555.403 43.863 555.083 43.663 C 554.763 43.463 554.516 43.183 554.343 42.823 C 554.163 42.47 554.073 42.056 554.073 41.583 L 554.073 41.403 C 554.073 40.95 554.16 40.546 554.333 40.193 C 554.5 39.833 554.743 39.55 555.063 39.343 C 555.383 39.136 555.763 39.033 556.203 39.033 C 556.59 39.033 556.926 39.096 557.213 39.223 C 557.506 39.35 557.75 39.52 557.943 39.733 L 557.963 40.883 L 557.293 40.883 L 557.143 40.053 C 557.043 39.946 556.916 39.863 556.763 39.803 C 556.616 39.743 556.44 39.713 556.233 39.713 C 555.98 39.713 555.756 39.79 555.563 39.943 C 555.363 40.096 555.21 40.3 555.103 40.553 C 554.996 40.806 554.943 41.09 554.943 41.403 L 554.943 41.583 C 554.943 41.93 554.993 42.233 555.093 42.493 C 555.193 42.746 555.34 42.943 555.533 43.083 C 555.72 43.223 555.943 43.293 556.203 43.293 C 556.496 43.293 556.74 43.21 556.933 43.043 C 557.126 42.883 557.246 42.663 557.293 42.383 L 558.063 42.383 L 558.073 42.413 C 558.06 42.686 557.98 42.94 557.833 43.173 C 557.686 43.413 557.476 43.603 557.203 43.743 C 556.936 43.89 556.603 43.963 556.203 43.963 ZM 560.997 43.963 C 560.557 43.963 560.18 43.86 559.867 43.653 C 559.547 43.446 559.3 43.163 559.127 42.803 C 558.953 42.436 558.867 42.02 558.867 41.553 L 558.867 41.453 C 558.867 40.986 558.953 40.57 559.127 40.203 C 559.3 39.836 559.547 39.55 559.867 39.343 C 560.18 39.136 560.557 39.033 560.997 39.033 C 561.43 39.033 561.807 39.136 562.127 39.343 C 562.447 39.55 562.693 39.836 562.867 40.203 C 563.04 40.563 563.127 40.98 563.127 41.453 L 563.127 41.553 C 563.127 42.02 563.04 42.436 562.867 42.803 C 562.693 43.17 562.447 43.453 562.127 43.653 C 561.813 43.86 561.437 43.963 560.997 43.963 Z M 560.997 43.293 C 561.277 43.293 561.51 43.216 561.697 43.063 C 561.883 42.91 562.023 42.703 562.117 42.443 C 562.21 42.183 562.257 41.886 562.257 41.553 L 562.257 41.453 C 562.257 41.12 562.21 40.82 562.117 40.553 C 562.023 40.293 561.88 40.086 561.687 39.933 C 561.5 39.786 561.27 39.713 560.997 39.713 C 560.717 39.713 560.483 39.786 560.297 39.933 C 560.11 40.086 559.97 40.293 559.877 40.553 C 559.783 40.82 559.737 41.12 559.737 41.453 L 559.737 41.553 C 559.737 41.886 559.783 42.183 559.877 42.443 C 559.97 42.703 560.11 42.91 560.297 43.063 C 560.49 43.216 560.723 43.293 560.997 43.293 ZM 566.081 43.873 L 563.791 43.873 L 563.791 43.323 L 564.501 43.193 L 564.501 39.803 L 563.791 39.673 L 563.791 39.123 L 565.281 39.123 L 565.341 39.733 C 565.488 39.513 565.684 39.34 565.931 39.213 C 566.171 39.093 566.448 39.033 566.761 39.033 C 567.074 39.033 567.348 39.106 567.581 39.253 C 567.808 39.4 567.978 39.62 568.091 39.913 C 568.238 39.64 568.434 39.423 568.681 39.263 C 568.928 39.11 569.214 39.033 569.541 39.033 C 570.028 39.033 570.411 39.2 570.691 39.533 C 570.978 39.86 571.121 40.36 571.121 41.033 L 571.121 43.193 L 571.831 43.323 L 571.831 43.873 L 569.531 43.873 L 569.531 43.323 L 570.251 43.193 L 570.251 41.023 C 570.251 40.55 570.168 40.216 570.001 40.023 C 569.841 39.83 569.604 39.733 569.291 39.733 C 568.984 39.733 568.741 39.84 568.561 40.053 C 568.381 40.266 568.274 40.533 568.241 40.853 L 568.241 43.193 L 568.961 43.323 L 568.961 43.873 L 566.661 43.873 L 566.661 43.323 L 567.381 43.193 L 567.381 41.023 C 567.381 40.576 567.298 40.25 567.131 40.043 C 566.964 39.836 566.724 39.733 566.411 39.733 C 566.144 39.733 565.928 39.786 565.761 39.893 C 565.588 40.006 565.458 40.16 565.371 40.353 L 565.371 43.193 L 566.081 43.323 L 566.081 43.873 ZM 574.63 45.703 L 572.33 45.703 L 572.33 45.143 L 573.01 45.023 L 573.01 39.803 L 572.29 39.673 L 572.29 39.123 L 573.75 39.123 L 573.83 39.703 C 573.983 39.483 574.176 39.316 574.41 39.203 C 574.636 39.09 574.896 39.033 575.19 39.033 C 575.583 39.033 575.92 39.14 576.2 39.353 C 576.48 39.56 576.693 39.856 576.84 40.243 C 576.986 40.623 577.06 41.07 577.06 41.583 L 577.06 41.673 C 577.06 42.133 576.986 42.533 576.84 42.873 C 576.686 43.22 576.473 43.486 576.2 43.673 C 575.926 43.866 575.596 43.963 575.21 43.963 C 574.916 43.963 574.66 43.916 574.44 43.823 C 574.213 43.723 574.023 43.576 573.87 43.383 L 573.87 45.023 L 574.63 45.143 L 574.63 45.703 Z M 574.94 43.293 C 575.346 43.293 575.656 43.143 575.87 42.843 C 576.083 42.543 576.19 42.153 576.19 41.673 L 576.19 41.583 C 576.19 41.223 576.143 40.903 576.05 40.623 C 575.956 40.343 575.816 40.126 575.63 39.973 C 575.443 39.813 575.21 39.733 574.93 39.733 C 574.683 39.733 574.473 39.79 574.3 39.903 C 574.12 40.01 573.976 40.16 573.87 40.353 L 573.87 42.673 C 573.976 42.866 574.12 43.02 574.3 43.133 C 574.473 43.24 574.686 43.293 574.94 43.293 ZM 580.04 43.963 C 579.6 43.963 579.223 43.86 578.91 43.653 C 578.59 43.446 578.343 43.163 578.17 42.803 C 577.997 42.436 577.91 42.02 577.91 41.553 L 577.91 41.453 C 577.91 40.986 577.997 40.57 578.17 40.203 C 578.343 39.836 578.59 39.55 578.91 39.343 C 579.223 39.136 579.6 39.033 580.04 39.033 C 580.473 39.033 580.85 39.136 581.17 39.343 C 581.49 39.55 581.737 39.836 581.91 40.203 C 582.083 40.563 582.17 40.98 582.17 41.453 L 582.17 41.553 C 582.17 42.02 582.083 42.436 581.91 42.803 C 581.737 43.17 581.49 43.453 581.17 43.653 C 580.857 43.86 580.48 43.963 580.04 43.963 Z M 580.04 43.293 C 580.32 43.293 580.553 43.216 580.74 43.063 C 580.927 42.91 581.067 42.703 581.16 42.443 C 581.253 42.183 581.3 41.886 581.3 41.553 L 581.3 41.453 C 581.3 41.12 581.253 40.82 581.16 40.553 C 581.067 40.293 580.923 40.086 580.73 39.933 C 580.543 39.786 580.313 39.713 580.04 39.713 C 579.76 39.713 579.527 39.786 579.34 39.933 C 579.153 40.086 579.013 40.293 578.92 40.553 C 578.827 40.82 578.78 41.12 578.78 41.453 L 578.78 41.553 C 578.78 41.886 578.827 42.183 578.92 42.443 C 579.013 42.703 579.153 42.91 579.34 43.063 C 579.533 43.216 579.767 43.293 580.04 43.293 ZM 584.754 43.963 C 584.434 43.963 584.134 43.933 583.854 43.873 C 583.581 43.806 583.288 43.706 582.974 43.573 L 582.964 42.443 L 583.614 42.443 L 583.774 43.123 C 583.941 43.19 584.101 43.24 584.254 43.273 C 584.408 43.3 584.574 43.313 584.754 43.313 C 585.108 43.313 585.361 43.246 585.514 43.113 C 585.661 42.98 585.734 42.813 585.734 42.613 C 585.734 42.426 585.658 42.266 585.504 42.133 C 585.351 42.006 585.074 41.896 584.674 41.803 C 584.101 41.67 583.678 41.493 583.404 41.273 C 583.131 41.053 582.994 40.76 582.994 40.393 C 582.994 40.133 583.071 39.9 583.224 39.693 C 583.371 39.493 583.578 39.333 583.844 39.213 C 584.111 39.093 584.421 39.033 584.774 39.033 C 585.134 39.033 585.444 39.073 585.704 39.153 C 585.958 39.233 586.181 39.343 586.374 39.483 L 586.414 40.573 L 585.764 40.573 L 585.624 39.933 C 585.524 39.86 585.404 39.803 585.264 39.763 C 585.118 39.723 584.954 39.703 584.774 39.703 C 584.508 39.703 584.288 39.763 584.114 39.883 C 583.948 40.01 583.864 40.17 583.864 40.363 C 583.864 40.476 583.888 40.573 583.934 40.653 C 583.988 40.733 584.081 40.806 584.214 40.873 C 584.354 40.94 584.558 41.006 584.824 41.073 C 585.484 41.226 585.948 41.423 586.214 41.663 C 586.474 41.903 586.604 42.2 586.604 42.553 C 586.604 42.953 586.454 43.29 586.154 43.563 C 585.861 43.83 585.394 43.963 584.754 43.963 ZM 589.581 43.873 L 587.281 43.873 L 587.281 43.323 L 588.001 43.193 L 588.001 39.803 L 587.281 39.673 L 587.281 39.123 L 588.871 39.123 L 588.871 43.193 L 589.581 43.323 L 589.581 43.873 Z M 588.871 37.943 L 587.961 37.943 L 587.961 37.013 L 588.871 37.013 L 588.871 37.943 ZM 591.853 43.943 C 591.506 43.943 591.23 43.84 591.023 43.633 C 590.816 43.433 590.713 43.103 590.713 42.643 L 590.713 39.763 L 589.963 39.763 L 589.963 39.123 L 590.713 39.123 L 590.713 37.973 L 591.573 37.973 L 591.573 39.123 L 592.613 39.123 L 592.613 39.763 L 591.573 39.763 L 591.573 42.643 C 591.573 42.876 591.62 43.046 591.713 43.153 C 591.806 43.26 591.926 43.313 592.073 43.313 C 592.18 43.313 592.296 43.303 592.423 43.283 C 592.55 43.263 592.646 43.246 592.713 43.233 L 592.833 43.803 C 592.706 43.843 592.553 43.876 592.373 43.903 C 592.186 43.93 592.013 43.943 591.853 43.943 ZM 595.46 43.963 C 595.02 43.963 594.637 43.863 594.31 43.663 C 593.99 43.463 593.74 43.183 593.56 42.823 C 593.387 42.47 593.3 42.056 593.3 41.583 L 593.3 41.393 C 593.3 40.94 593.39 40.536 593.57 40.183 C 593.757 39.83 594.007 39.55 594.32 39.343 C 594.627 39.136 594.963 39.033 595.33 39.033 C 595.757 39.033 596.113 39.12 596.4 39.293 C 596.693 39.466 596.913 39.713 597.06 40.033 C 597.207 40.353 597.28 40.726 597.28 41.153 L 597.28 41.693 L 594.19 41.693 L 594.18 41.723 C 594.187 42.023 594.24 42.293 594.34 42.533 C 594.44 42.766 594.587 42.95 594.78 43.083 C 594.967 43.223 595.193 43.293 595.46 43.293 C 595.753 43.293 596.01 43.25 596.23 43.163 C 596.45 43.083 596.643 42.97 596.81 42.823 L 597.14 43.383 C 596.973 43.543 596.75 43.68 596.47 43.793 C 596.19 43.906 595.853 43.963 595.46 43.963 Z M 594.21 41.003 L 594.22 41.023 L 596.41 41.023 L 596.41 40.903 C 596.41 40.676 596.37 40.473 596.29 40.293 C 596.21 40.113 596.09 39.97 595.93 39.863 C 595.77 39.763 595.57 39.713 595.33 39.713 C 595.137 39.713 594.96 39.77 594.8 39.883 C 594.647 39.996 594.517 40.15 594.41 40.343 C 594.31 40.536 594.243 40.756 594.21 41.003 ZM 602.443 43.873 L 600.143 43.873 L 600.143 43.323 L 600.863 43.193 L 600.863 39.803 L 600.143 39.673 L 600.143 39.123 L 601.733 39.123 L 601.733 43.193 L 602.443 43.323 L 602.443 43.873 Z M 601.733 37.943 L 600.823 37.943 L 600.823 37.013 L 601.733 37.013 L 601.733 37.943 ZM 605.335 43.873 L 603.045 43.873 L 603.045 43.323 L 603.755 43.193 L 603.755 39.803 L 603.045 39.673 L 603.045 39.123 L 604.535 39.123 L 604.595 39.733 C 604.742 39.513 604.939 39.34 605.185 39.213 C 605.425 39.093 605.702 39.033 606.015 39.033 C 606.329 39.033 606.602 39.106 606.835 39.253 C 607.062 39.4 607.232 39.62 607.345 39.913 C 607.492 39.64 607.689 39.423 607.935 39.263 C 608.182 39.11 608.469 39.033 608.795 39.033 C 609.282 39.033 609.665 39.2 609.945 39.533 C 610.232 39.86 610.375 40.36 610.375 41.033 L 610.375 43.193 L 611.085 43.323 L 611.085 43.873 L 608.785 43.873 L 608.785 43.323 L 609.505 43.193 L 609.505 41.023 C 609.505 40.55 609.422 40.216 609.255 40.023 C 609.095 39.83 608.859 39.733 608.545 39.733 C 608.239 39.733 607.995 39.84 607.815 40.053 C 607.635 40.266 607.529 40.533 607.495 40.853 L 607.495 43.193 L 608.215 43.323 L 608.215 43.873 L 605.915 43.873 L 605.915 43.323 L 606.635 43.193 L 606.635 41.023 C 606.635 40.576 606.552 40.25 606.385 40.043 C 606.219 39.836 605.979 39.733 605.665 39.733 C 605.399 39.733 605.182 39.786 605.015 39.893 C 604.842 40.006 604.712 40.16 604.625 40.353 L 604.625 43.193 L 605.335 43.323 L 605.335 43.873 ZM 613.254 43.963 C 612.761 43.963 612.384 43.843 612.124 43.603 C 611.871 43.363 611.744 43.023 611.744 42.583 C 611.744 42.283 611.828 42.02 611.994 41.793 C 612.154 41.566 612.391 41.393 612.704 41.273 C 613.018 41.146 613.394 41.083 613.834 41.083 L 614.684 41.083 L 614.684 40.613 C 614.684 40.326 614.598 40.106 614.424 39.953 C 614.244 39.793 613.998 39.713 613.684 39.713 C 613.484 39.713 613.311 39.736 613.164 39.783 C 613.018 39.83 612.884 39.896 612.764 39.983 L 612.674 40.643 L 612.004 40.643 L 612.004 39.553 C 612.218 39.386 612.468 39.256 612.754 39.163 C 613.034 39.076 613.348 39.033 613.694 39.033 C 614.274 39.033 614.728 39.17 615.054 39.443 C 615.381 39.716 615.544 40.11 615.544 40.623 L 615.544 42.913 C 615.544 42.973 615.548 43.033 615.554 43.093 C 615.554 43.153 615.558 43.213 615.564 43.273 L 616.024 43.323 L 616.024 43.873 L 614.774 43.873 C 614.748 43.746 614.728 43.63 614.714 43.523 C 614.701 43.423 614.691 43.323 614.684 43.223 C 614.518 43.436 614.311 43.613 614.064 43.753 C 613.811 43.893 613.541 43.963 613.254 43.963 Z M 613.384 43.243 C 613.671 43.243 613.934 43.173 614.174 43.033 C 614.408 42.893 614.578 42.726 614.684 42.533 L 614.684 41.673 L 613.804 41.673 C 613.404 41.673 613.104 41.77 612.904 41.963 C 612.704 42.15 612.604 42.363 612.604 42.603 C 612.604 42.81 612.671 42.966 612.804 43.073 C 612.931 43.186 613.124 43.243 613.384 43.243 ZM 618.774 45.793 C 618.547 45.793 618.3 45.763 618.034 45.703 C 617.767 45.636 617.534 45.55 617.334 45.443 L 617.554 44.773 C 617.714 44.853 617.904 44.923 618.124 44.983 C 618.344 45.036 618.557 45.063 618.764 45.063 C 619.15 45.063 619.434 44.956 619.614 44.743 C 619.794 44.523 619.884 44.213 619.884 43.813 L 619.884 43.363 C 619.73 43.556 619.547 43.706 619.334 43.813 C 619.114 43.913 618.864 43.963 618.584 43.963 C 618.197 43.963 617.864 43.866 617.584 43.673 C 617.304 43.486 617.087 43.22 616.934 42.873 C 616.78 42.526 616.704 42.126 616.704 41.673 L 616.704 41.583 C 616.704 41.076 616.78 40.63 616.934 40.243 C 617.087 39.856 617.304 39.56 617.584 39.353 C 617.864 39.14 618.2 39.033 618.594 39.033 C 618.894 39.033 619.154 39.09 619.374 39.203 C 619.6 39.323 619.79 39.493 619.944 39.713 L 620.024 39.123 L 620.754 39.123 L 620.754 43.813 C 620.754 44.22 620.677 44.573 620.524 44.873 C 620.37 45.166 620.147 45.393 619.854 45.553 C 619.56 45.713 619.2 45.793 618.774 45.793 Z M 618.794 43.263 C 619.06 43.263 619.28 43.203 619.454 43.083 C 619.627 42.963 619.77 42.796 619.884 42.583 L 619.884 40.393 C 619.777 40.193 619.634 40.033 619.454 39.913 C 619.274 39.793 619.057 39.733 618.804 39.733 C 618.53 39.733 618.304 39.813 618.124 39.973 C 617.937 40.126 617.797 40.343 617.704 40.623 C 617.617 40.903 617.574 41.223 617.574 41.583 L 617.574 41.673 C 617.574 42.153 617.674 42.536 617.874 42.823 C 618.074 43.116 618.38 43.263 618.794 43.263 Z M 621.344 39.673 L 620.624 39.823 L 620.284 39.123 L 621.344 39.123 L 621.344 39.673 ZM 623.911 43.963 C 623.471 43.963 623.087 43.863 622.761 43.663 C 622.441 43.463 622.191 43.183 622.011 42.823 C 621.837 42.47 621.751 42.056 621.751 41.583 L 621.751 41.393 C 621.751 40.94 621.841 40.536 622.021 40.183 C 622.207 39.83 622.457 39.55 622.771 39.343 C 623.077 39.136 623.414 39.033 623.781 39.033 C 624.207 39.033 624.564 39.12 624.851 39.293 C 625.144 39.466 625.364 39.713 625.511 40.033 C 625.657 40.353 625.731 40.726 625.731 41.153 L 625.731 41.693 L 622.641 41.693 L 622.631 41.723 C 622.637 42.023 622.691 42.293 622.791 42.533 C 622.891 42.766 623.037 42.95 623.231 43.083 C 623.417 43.223 623.644 43.293 623.911 43.293 C 624.204 43.293 624.461 43.25 624.681 43.163 C 624.901 43.083 625.094 42.97 625.261 42.823 L 625.591 43.383 C 625.424 43.543 625.201 43.68 624.921 43.793 C 624.641 43.906 624.304 43.963 623.911 43.963 Z M 622.661 41.003 L 622.671 41.023 L 624.861 41.023 L 624.861 40.903 C 624.861 40.676 624.821 40.473 624.741 40.293 C 624.661 40.113 624.541 39.97 624.381 39.863 C 624.221 39.763 624.021 39.713 623.781 39.713 C 623.587 39.713 623.411 39.77 623.251 39.883 C 623.097 39.996 622.967 40.15 622.861 40.343 C 622.761 40.536 622.694 40.756 622.661 41.003 Z" transform="matrix(1, 0, 0, 1, 0, 0)" style="fill: rgb(51, 51, 51); white-space: pre;"/>
    </g>
  </g>
</svg>